<?xml version="1.0" encoding="UTF-8"?>
<!DOCTYPE svg PUBLIC "-//W3C//DTD SVG 1.1//EN" "http://www.w3.org/Graphics/SVG/1.1/DTD/svg11.dtd">
<!-- Creator: CorelDRAW X7 -->
<svg xmlns="http://www.w3.org/2000/svg" xml:space="preserve" width="55.1718mm" height="40.8117mm" version="1.1" style="shape-rendering:geometricPrecision; text-rendering:geometricPrecision; image-rendering:optimizeQuality; fill-rule:evenodd; clip-rule:evenodd"
viewBox="0 0 4232 3131"
 xmlns:xlink="http://www.w3.org/1999/xlink">
 <defs>
  <style type="text/css">
   <![CDATA[
    .str0 {stroke:#373435;stroke-width:5.84545}
    .fil0 {fill:#373435}
   ]]>
  </style>
 </defs>
 <g id="Camada_x0020_1">
  <metadata id="CorelCorpID_0Corel-Layer"/>
  <g id="_475279512">
   <g>
    <g>
     <g>
      <path class="fil0 str0" d="M2112 1060c193,0 368,76 494,206 131,126 207,302 207,495 0,193 -81,369 -207,495 -126,130 -301,206 -494,206 -194,0 -369,-81 -495,-206 -130,-126 -207,-302 -207,-495 0,-193 81,-369 207,-495 126,-130 301,-206 495,-206zm-387 1088c99,94 238,157 387,157 153,0 287,-58 386,-157 95,-99 158,-239 158,-387 0,-153 -59,-288 -158,-387 -99,-94 -238,-157 -386,-157 -153,0 -288,58 -387,157 -99,99 -157,234 -157,387 0,153 58,288 157,387z"/>
      <path class="fil0 str0" d="M97 480c59,-59 140,-95 230,-95l818 0 346 -355c14,-18 36,-27 59,-27l1133 0c18,0 40,9 54,22l350 360 819 0c90,0 171,36 229,99 58,58 94,139 94,229l0 2091c0,90 -36,171 -94,229 -58,59 -139,95 -229,95l-3579 0c-90,0 -171,-36 -230,-95 -58,-58 -94,-139 -94,-229l0 -2095c0,-90 36,-171 94,-229zm2550 -320l-1070 0 -221 225 1511 0 -220 -225zm-2496 2649c0,49 18,90 50,121 31,31 76,49 121,49l3584 0c49,0 90,-18 121,-49 32,-31 50,-76 50,-121l0 -2096c0,-49 -18,-90 -50,-121 -31,-32 -76,-50 -121,-50l-3588 0c-45,0 -86,18 -117,50 -32,31 -50,76 -50,121l0 2096z"/>
      <path class="fil0 str0" d="M345 722c45,-45 112,-76 184,-76 72,0 135,27 180,72l4 4c45,45 77,113 77,185 0,72 -27,135 -77,184 -45,45 -112,76 -184,76 -72,0 -135,-27 -184,-76 -45,-45 -77,-112 -77,-184 0,-68 27,-131 72,-180l5 -5zm108 266c18,18 45,31 76,31 31,0 58,-13 76,-31 18,-18 32,-45 32,-77 0,-31 -14,-58 -32,-76l-4 -5c-18,-18 -45,-27 -72,-27 -31,0 -58,14 -76,32 -18,22 -32,49 -32,76 0,32 14,59 32,77z"/>
      <path class="fil0 str0" d="M2112 646c305,0 584,126 787,324 197,202 323,481 323,786 0,311 -121,585 -323,787 -203,198 -482,324 -787,324 -306,0 -585,-121 -787,-324 -198,-202 -324,-481 -324,-787 0,-310 121,-584 324,-786 202,-198 481,-324 787,-324zm-675 1785c171,171 409,279 675,279 265,0 503,-108 674,-279 171,-171 279,-409 279,-675 0,-265 -108,-503 -279,-674 -171,-171 -409,-279 -674,-279 -266,0 -504,108 -675,279 -171,175 -279,414 -279,674 0,266 108,504 279,675z"/>
     </g>
    </g>
   </g>
   <g>
   </g>
   <g>
   </g>
   <g>
   </g>
   <g>
   </g>
   <g>
   </g>
   <g>
   </g>
   <g>
   </g>
   <g>
   </g>
   <g>
   </g>
   <g>
   </g>
   <g>
   </g>
   <g>
   </g>
   <g>
   </g>
   <g>
   </g>
   <g>
   </g>
  </g>
 </g>
</svg>
