<?xml version="1.0" encoding="UTF-8"?>
<!DOCTYPE svg PUBLIC "-//W3C//DTD SVG 1.1//EN" "http://www.w3.org/Graphics/SVG/1.1/DTD/svg11.dtd">
<!-- Creator: CorelDRAW X7 -->
<svg xmlns="http://www.w3.org/2000/svg" xml:space="preserve" width="55.2mm" height="55.2mm" version="1.1" style="shape-rendering:geometricPrecision; text-rendering:geometricPrecision; image-rendering:optimizeQuality; fill-rule:evenodd; clip-rule:evenodd"
viewBox="0 0 5520 5520"
 xmlns:xlink="http://www.w3.org/1999/xlink">
 <defs>
  <style type="text/css">
   <![CDATA[
    .str2 {stroke:#373435;stroke-width:20}
    .str1 {stroke:#525849;stroke-width:20}
    .str3 {stroke:#69A31B;stroke-width:20}
    .str0 {stroke:#828282;stroke-width:20}
    .str7 {stroke:white;stroke-width:35.68;stroke-linecap:round;stroke-linejoin:round}
    .str6 {stroke:#53C1DE;stroke-width:35.68;stroke-linecap:round;stroke-linejoin:round}
    .str5 {stroke:white;stroke-width:35.68;stroke-linecap:round;stroke-linejoin:round}
    .str4 {stroke:#589636;stroke-width:35.68;stroke-linecap:round;stroke-linejoin:round}
    .fil6 {fill:none}
    .fil13 {fill:none;fill-rule:nonzero}
    .fil2 {fill:black}
    .fil1 {fill:#525849}
    .fil5 {fill:#53C1DE}
    .fil8 {fill:#589636}
    .fil3 {fill:#69A31B}
    .fil0 {fill:#828282}
    .fil7 {fill:#A6A385}
    .fil4 {fill:white}
    .fil10 {fill:#FEFEFE;fill-rule:nonzero}
    .fil9 {fill:#373435;fill-rule:nonzero}
    .fil11 {fill:#373435;fill-rule:nonzero}
    .fil15 {fill:#53C1DE;fill-rule:nonzero}
    .fil12 {fill:#589636;fill-rule:nonzero}
    .fil14 {fill:white;fill-rule:nonzero}
   ]]>
  </style>
 </defs>
 <g id="Camada_x0020_1">
  <metadata id="CorelCorpID_0Corel-Layer"/>
  <g id="_483624016">
   <path class="fil0 str0" d="M2760 2760l0 -2750c1519,0 2750,1231 2750,2750l-2750 0z"/>
   <path class="fil1 str1" d="M2760 2760l0 -2750c-1519,0 -2750,1231 -2750,2750l2750 0z"/>
   <path class="fil2 str2" d="M2760 2760l0 2750c-1519,0 -2750,-1231 -2750,-2750l2750 0z"/>
   <path class="fil3 str3" d="M2760 2760l0 2750c1519,0 2750,-1231 2750,-2750l-2750 0z"/>
   <g>
    <path class="fil4" d="M3467 1674c-148,0 -256,-111 -256,-299 0,-189 108,-301 256,-302 162,0 243,128 243,250 0,29 0,39 -1,59l-478 3c3,188 116,270 236,270 118,-1 207,-72 224,-188l19 0c-18,120 -106,206 -243,207zm-236 -309l462 -2c9,-189 -108,-271 -226,-270 -121,1 -236,86 -236,272z"/>
    <polygon class="fil4" points="4232,1664 4012,1383 3793,1664 3773,1664 4001,1369 3777,1086 3798,1086 4014,1361 4229,1086 4247,1086 4024,1374 4253,1664 "/>
   </g>
   <g>
    <path class="fil5" d="M2030 3251l0 0c-8,-2 -16,-5 -25,-7 2,-5 3,-11 4,-16 18,-89 6,-159 -34,-183 -39,-22 -102,1 -167,57 -6,6 -12,11 -18,17 -4,-4 -8,-8 -12,-12 -67,-59 -134,-85 -175,-61 -39,23 -50,89 -34,173 2,8 4,16 5,24 -9,3 -19,6 -27,9 -79,28 -129,71 -129,115 0,46 54,93 136,120 7,3 13,5 20,7 -2,9 -4,18 -6,27 -16,81 -3,147 35,169 40,23 107,0 172,-58 6,-4 11,-9 16,-14 6,7 13,13 20,19 64,54 126,76 164,54 40,-23 53,-93 37,-178 -1,-7 -3,-13 -5,-20 5,-2 9,-3 14,-4 85,-29 140,-74 140,-121 1,-46 -51,-89 -131,-117zm-201 -125c55,-48 107,-67 130,-53l0 0c24,14 34,72 19,148 -1,5 -3,10 -4,15 -31,-7 -64,-13 -99,-16 -21,-29 -42,-55 -63,-79 5,-5 11,-11 17,-15zm-192 279c7,13 13,26 21,38 7,14 15,26 23,39 -24,-3 -47,-7 -68,-11 6,-21 14,-43 24,-66zm0 -75c-10,-22 -18,-44 -24,-65 21,-4 44,-8 68,-11 -8,12 -16,25 -23,37 -8,13 -14,26 -21,39zm17 38c10,-21 21,-41 32,-60l0 0c11,-19 23,-39 36,-57 22,-2 44,-3 68,-3 23,0 45,1 67,3 13,19 25,38 36,57 12,19 22,39 32,60 -10,20 -20,40 -32,60l0 0c-11,20 -23,39 -36,58 -22,1 -45,3 -68,3 -23,0 -46,-1 -67,-3 -13,-18 -25,-37 -36,-57 -12,-21 -22,-41 -32,-61zm267 75c7,-13 15,-26 21,-39 10,23 19,45 26,66 -22,4 -45,9 -70,12 8,-13 16,-26 23,-39zm21 -113c-6,-13 -14,-26 -21,-39l0 0c-7,-12 -15,-25 -23,-37 24,3 47,7 68,12 -6,21 -15,42 -24,64zm-152 -166l0 0c14,16 29,34 43,53 -29,-1 -59,-1 -88,0 15,-19 30,-37 45,-53zm-172 -91c25,-14 80,7 139,58 3,3 7,7 11,10 -22,24 -44,50 -64,79 -35,3 -69,8 -99,15 -2,-7 -4,-15 -5,-23l0 0c-15,-72 -5,-125 18,-139zm-36 390c-6,-2 -12,-4 -18,-6 -36,-13 -66,-28 -87,-46 -18,-16 -28,-32 -28,-44 0,-28 41,-62 108,-85 8,-3 17,-6 26,-8 9,30 21,62 36,94 -15,32 -28,64 -37,95zm172 145c-28,25 -57,43 -83,52l0 0c-23,8 -41,8 -52,2 -24,-14 -33,-66 -20,-136 2,-9 3,-16 5,-25 31,7 64,12 101,15 20,29 42,55 64,79 -5,4 -10,9 -15,13zm37 -36c-16,-16 -30,-34 -45,-54 14,1 29,2 44,2 15,0 30,-1 45,-2 -15,20 -30,38 -44,54zm193 44c-4,24 -13,40 -24,46 -24,14 -74,-4 -128,-50 -6,-5 -12,-11 -19,-17 21,-23 42,-50 63,-80 36,-3 70,-8 101,-15 1,6 2,12 4,17l0 0c7,39 8,73 3,99zm27 -158l0 0c-5,1 -9,2 -13,3 -9,-30 -22,-61 -38,-94 15,-32 28,-64 36,-93 8,2 16,5 23,7 68,23 110,58 110,85 1,30 -44,67 -118,92z"/>
    <circle class="fil5" cx="1790" cy="3367" r="67"/>
   </g>
   <g>
    <circle class="fil3" cx="3732" cy="3368" r="431"/>
    <g>
     <path class="fil4" d="M3706 3057c15,-9 36,-9 52,0 79,44 158,90 238,134 14,9 24,25 24,42l0 270c0,18 -11,35 -27,43 -79,45 -158,89 -237,134 -16,10 -37,8 -52,-2 -24,-13 -48,-27 -72,-40 -5,-4 -10,-6 -13,-10 3,-5 8,-5 12,-7 10,-3 19,-8 28,-13 2,-1 5,-1 7,1 21,11 41,23 61,35 4,2 9,-1 13,-3 78,-44 155,-88 233,-132 3,-1 5,-4 4,-7 0,-89 0,-178 0,-267 1,-3 -1,-6 -5,-8 -78,-45 -157,-89 -236,-133 -2,-3 -6,-3 -9,0 -79,44 -158,88 -237,133 -3,2 -5,5 -5,8 0,89 0,178 0,267 0,3 2,6 4,7 21,12 42,24 63,36 12,6 27,10 40,5 11,-4 19,-15 19,-28 0,-88 0,-177 0,-265 0,-4 4,-7 8,-7 10,0 20,0 30,0 4,0 7,4 7,8 0,89 0,178 0,267 0,24 -10,50 -32,61 -26,14 -60,11 -87,-3 -23,-11 -45,-25 -68,-37 -15,-8 -26,-25 -26,-43l0 -270c0,-17 10,-34 25,-42 80,-45 159,-90 238,-134z"/>
     <path class="fil4" d="M3775 3244c35,-2 71,-2 102,15 25,14 38,41 38,68 0,3 -4,5 -8,5 -10,0 -20,0 -30,0 -4,0 -6,-4 -7,-7 -3,-13 -10,-26 -22,-32 -18,-9 -40,-9 -60,-8 -15,0 -30,2 -43,10 -9,7 -13,20 -9,31 3,8 12,10 20,12 41,11 85,10 126,24 17,6 34,18 40,35 7,24 4,52 -13,71 -14,16 -34,24 -54,29 -26,6 -53,6 -80,3 -26,-2 -52,-9 -71,-26 -17,-15 -25,-37 -25,-59 0,-4 4,-6 8,-6 10,0 20,0 30,0 4,0 7,3 8,7 2,12 6,25 16,32 21,13 47,12 70,13 20,-1 42,-1 57,-15 9,-7 12,-19 9,-30 -3,-8 -12,-13 -20,-15 -41,-13 -86,-9 -126,-23 -16,-6 -33,-17 -39,-34 -9,-24 -5,-54 14,-72 18,-19 44,-26 69,-28l0 0z"/>
    </g>
   </g>
   <g>
    <rect class="fil6" x="2761" y="816" width="1942" height="1942"/>
    <rect class="fil6" x="818" y="816" width="1942" height="1942"/>
    <rect class="fil6" x="2761" y="2758" width="1942" height="1942"/>
    <rect class="fil6" x="818" y="2758" width="1942" height="1942"/>
   </g>
   <g>
    <path class="fil4" d="M1811 1971l-26 -9c0,0 4,-132 -44,-142 -31,-37 5,-1555 119,-5 0,0 -39,20 -46,54 -7,32 -3,102 -3,102l0 0z"/>
    <path class="fil7" d="M1811 1971l-26 -9c0,0 4,-132 -44,-142 -31,-37 5,-1555 119,-5 0,0 -39,20 -46,54 -7,32 -3,102 -3,102l0 0z"/>
    <path class="fil4" d="M1826 1843c0,0 227,-149 174,-460 -52,-226 -172,-300 -186,-328 -14,-21 -29,-56 -29,-56l10 628c0,1 -19,193 31,216z"/>
    <path class="fil8" d="M1826 1843c0,0 227,-149 174,-460 -52,-226 -172,-300 -186,-328 -14,-21 -29,-56 -29,-56l10 628c0,1 -19,193 31,216z"/>
    <path class="fil4" d="M1772 1851c0,0 -212,-146 -200,-402 12,-255 162,-381 192,-404 19,-20 19,-28 20,-48 13,29 11,426 12,472 7,180 -9,348 -24,382z"/>
    <path class="fil8" d="M1772 1851c0,0 -212,-146 -200,-402 12,-255 162,-381 192,-404 19,-20 19,-28 20,-48 13,29 11,426 12,472 7,180 -9,348 -24,382z"/>
   </g>
   <g>
    <g>
     <path class="fil9" d="M5139 2760l-28 0 0 0 -3 -121 -9 -119 -15 -118 -21 -116 -26 -114 -32 -111 -37 -109 -42 -107 -47 -104 -52 -102 -56 -98 -62 -95 -65 -93 -70 -88 -74 -86 -78 -81 -81 -78 -86 -74 -88 -70 -93 -65 -95 -62 -98 -56 -102 -52 -104 -47 -107 -42 -109 -37 -111 -32 -114 -26 -116 -21 -118 -15 -119 -9 -121 -3 0 -28 122 3 121 9 119 15 118 21 115 27 113 32 110 37 108 43 106 47 102 53 100 57 96 62 94 66 90 71 86 75 83 79 78 82 75 86 71 90 66 94 62 96 57 100 53 102 47 106 43 108 37 110 33 113 26 115 21 118 15 119 9 121 3 122 0 0zm-2379 2379l0 -28 0 0 121 -3 119 -9 118 -15 116 -21 114 -26 111 -32 109 -37 107 -42 104 -47 102 -52 98 -56 95 -62 93 -65 88 -70 86 -74 81 -78 78 -81 74 -86 70 -88 65 -93 62 -95 56 -98 52 -102 47 -104 42 -107 37 -109 32 -111 26 -114 21 -116 15 -118 9 -119 3 -121 28 0 -3 122 -9 121 -15 119 -21 118 -26 115 -33 113 -37 110 -43 108 -47 106 -53 102 -57 100 -62 96 -66 94 -71 90 -75 86 -78 83 -83 78 -86 75 -90 71 -94 66 -96 62 -100 57 -102 53 -106 47 -108 43 -110 37 -113 33 -115 26 -118 21 -119 15 -121 9 -122 3 0 0zm-2379 -2379l28 0 0 0 3 121 9 119 15 118 21 116 26 114 32 111 37 109 42 107 47 104 52 102 56 98 62 95 65 93 70 88 74 86 78 81 81 78 86 74 88 70 93 65 95 62 98 56 102 52 104 47 107 42 109 37 111 32 114 26 116 21 118 15 119 9 121 3 0 28 -122 -3 -121 -9 -119 -15 -118 -21 -115 -26 -113 -33 -110 -37 -108 -43 -106 -47 -102 -53 -100 -57 -96 -62 -94 -66 -90 -71 -86 -75 -82 -78 -79 -83 -75 -86 -71 -90 -66 -94 -62 -96 -57 -100 -53 -102 -47 -106 -43 -108 -37 -110 -32 -113 -27 -115 -21 -118 -15 -119 -9 -121 -3 -122 0 0zm2379 -2379l0 28 0 0 -121 3 -119 9 -118 15 -116 21 -114 26 -111 32 -109 37 -107 42 -104 47 -102 52 -98 56 -95 62 -93 65 -88 70 -86 74 -81 78 -78 81 -74 86 -70 88 -65 93 -62 95 -56 98 -52 102 -47 104 -42 107 -37 109 -32 111 -26 114 -21 116 -15 118 -9 119 -3 121 -28 0 3 -122 9 -121 15 -119 21 -118 27 -115 32 -113 37 -110 43 -108 47 -106 53 -102 57 -100 62 -96 66 -94 71 -90 75 -86 79 -82 82 -79 86 -75 90 -71 94 -66 96 -62 100 -57 102 -53 106 -47 108 -43 110 -37 113 -32 115 -27 118 -21 119 -15 121 -9 122 -3 0 0z"/>
    </g>
    <g>
     <path class="fil10" d="M5251 2760l-28 0 0 0 -3 -127 -10 -125 -16 -123 -21 -121 -28 -120 -33 -116 -39 -115 -44 -112 -49 -109 -54 -106 -60 -103 -64 -100 -68 -97 -74 -93 -77 -89 -82 -85 -85 -82 -89 -77 -93 -74 -97 -68 -100 -64 -103 -60 -106 -54 -109 -49 -112 -44 -115 -39 -116 -33 -120 -28 -121 -21 -123 -16 -125 -10 -127 -3 0 -28 128 3 127 10 124 15 123 22 121 28 118 34 116 39 113 44 110 50 108 55 104 60 101 65 98 70 94 74 90 78 87 82 82 87 78 90 74 94 70 98 65 101 60 104 55 108 50 110 44 113 39 116 34 118 28 121 22 123 15 124 10 127 3 128 0 0zm-2491 2491l0 -28 0 0 127 -3 125 -10 123 -16 121 -21 120 -28 116 -33 115 -39 112 -44 109 -49 106 -54 103 -60 100 -64 97 -68 93 -74 89 -77 85 -82 82 -85 77 -89 74 -93 68 -97 64 -100 60 -103 54 -106 49 -109 44 -112 39 -115 33 -116 28 -120 21 -121 16 -123 10 -125 3 -127 28 0 -3 128 -10 127 -15 124 -22 123 -28 121 -34 118 -39 116 -44 113 -50 110 -55 108 -60 104 -65 101 -70 98 -74 94 -78 90 -82 87 -87 82 -90 78 -94 74 -98 70 -101 65 -104 60 -108 55 -110 50 -113 44 -116 39 -118 34 -121 28 -123 22 -124 15 -127 10 -128 3 0 0zm-2491 -2491l28 0 0 0 3 127 10 125 16 123 21 121 28 120 33 116 39 115 44 112 49 109 54 106 60 103 64 100 68 97 74 93 77 89 82 85 85 82 89 77 93 74 97 68 100 64 103 60 106 54 109 49 112 44 115 39 116 33 120 28 121 21 123 16 125 10 127 3 0 28 -128 -3 -127 -10 -124 -15 -123 -22 -121 -28 -118 -34 -116 -39 -113 -44 -110 -50 -108 -55 -104 -60 -101 -65 -98 -70 -94 -74 -90 -78 -87 -82 -82 -87 -78 -90 -74 -94 -70 -98 -65 -101 -60 -104 -55 -108 -50 -110 -44 -113 -39 -116 -34 -118 -28 -121 -22 -123 -15 -124 -10 -127 -3 -128 0 0zm2491 -2491l0 28 0 0 -127 3 -125 10 -123 16 -121 21 -120 28 -116 33 -115 39 -112 44 -109 49 -106 54 -103 60 -100 64 -97 68 -93 74 -89 77 -85 82 -82 85 -77 89 -74 93 -68 97 -64 100 -60 103 -54 106 -49 109 -44 112 -39 115 -33 116 -28 120 -21 121 -16 123 -10 125 -3 127 -28 0 3 -128 10 -127 15 -124 22 -123 28 -121 34 -118 39 -116 44 -113 50 -110 55 -108 60 -104 65 -101 70 -98 74 -94 78 -90 82 -87 87 -82 90 -78 94 -74 98 -70 101 -65 104 -60 108 -55 110 -50 113 -44 116 -39 118 -34 121 -28 123 -22 124 -15 127 -10 128 -3 0 0z"/>
    </g>
    <g>
     <path class="fil11" d="M5362 2760l-28 0 0 0 -4 -132 -10 -131 -16 -129 -23 -127 -28 -124 -35 -122 -41 -120 -46 -117 -51 -114 -57 -111 -62 -107 -67 -105 -72 -101 -76 -97 -81 -93 -85 -90 -90 -85 -93 -81 -97 -76 -101 -72 -105 -67 -107 -62 -111 -57 -114 -51 -117 -46 -120 -41 -122 -35 -124 -28 -127 -23 -129 -16 -131 -10 -132 -4 0 -28 134 3 132 10 130 17 128 23 126 29 124 35 121 41 118 46 115 52 112 58 109 63 106 67 102 73 98 77 95 82 90 86 86 90 82 95 77 98 73 102 67 106 63 109 58 112 52 115 46 118 41 121 35 124 29 126 23 128 17 130 10 132 3 134 0 0zm-2602 2602l0 -28 0 0 132 -4 131 -10 129 -16 127 -23 124 -28 122 -35 120 -41 117 -46 114 -51 111 -57 107 -62 105 -67 101 -72 97 -76 93 -81 90 -85 85 -90 81 -93 76 -97 72 -101 67 -105 62 -107 57 -111 51 -114 46 -117 41 -120 35 -122 28 -124 23 -127 16 -129 10 -131 4 -132 28 0 -3 134 -10 132 -17 130 -23 128 -29 126 -35 124 -41 121 -46 118 -52 115 -58 112 -63 109 -67 106 -73 102 -77 98 -82 95 -86 90 -90 86 -95 82 -98 77 -102 73 -106 67 -109 63 -112 58 -115 52 -118 46 -121 41 -124 35 -126 29 -128 23 -130 17 -132 10 -134 3 0 0zm-2602 -2602l28 0 0 0 4 132 10 131 16 129 23 127 28 124 35 122 41 120 46 117 51 114 57 111 62 107 67 105 72 101 76 97 81 93 85 90 90 85 93 81 97 76 101 72 105 67 107 62 111 57 114 51 117 46 120 41 122 35 124 28 127 23 129 16 131 10 132 4 0 28 -134 -3 -132 -10 -130 -17 -128 -23 -126 -29 -124 -35 -121 -41 -118 -46 -115 -52 -112 -58 -109 -63 -106 -67 -102 -73 -98 -77 -95 -82 -90 -86 -86 -90 -82 -95 -77 -98 -73 -102 -67 -106 -63 -109 -58 -112 -52 -115 -46 -118 -41 -121 -35 -124 -29 -126 -23 -128 -17 -130 -10 -132 -3 -134 0 0zm2602 -2602l0 28 0 0 -132 4 -131 10 -129 16 -127 23 -124 28 -122 35 -120 41 -117 46 -114 51 -111 57 -107 62 -105 67 -101 72 -97 76 -93 81 -90 85 -85 90 -81 93 -76 97 -72 101 -67 105 -62 107 -57 111 -51 114 -46 117 -41 120 -35 122 -28 124 -23 127 -16 129 -10 131 -4 132 -28 0 3 -134 10 -132 17 -130 23 -128 29 -126 35 -124 41 -121 46 -118 52 -115 58 -112 63 -109 67 -106 73 -102 77 -98 82 -95 86 -90 90 -86 95 -82 98 -77 102 -73 106 -67 109 -63 112 -58 115 -52 118 -46 121 -41 124 -35 126 -29 128 -23 130 -17 132 -10 134 -3 0 0z"/>
    </g>
    <g>
     <path class="fil10" d="M5453 2760l-29 0 0 0 -3 -137 -10 -135 -17 -134 -24 -131 -30 -129 -36 -126 -41 -124 -48 -121 -53 -118 -59 -115 -64 -112 -70 -108 -74 -104 -79 -101 -84 -96 -88 -93 -93 -88 -96 -84 -101 -79 -104 -74 -108 -70 -112 -64 -115 -59 -118 -53 -121 -48 -124 -41 -126 -36 -129 -30 -131 -24 -134 -17 -135 -10 -137 -3 0 -29 139 4 136 10 135 17 133 24 130 30 128 36 125 43 122 48 119 54 117 59 112 65 110 70 105 75 102 80 98 85 93 89 89 93 85 98 80 102 75 105 70 110 65 112 59 117 54 119 48 122 43 125 36 128 30 130 24 133 17 135 10 136 4 139 0 0zm-2693 2693l0 -29 0 0 137 -3 135 -10 134 -17 131 -24 129 -30 126 -36 124 -41 121 -48 118 -53 115 -59 112 -64 108 -70 104 -74 101 -79 96 -84 93 -88 88 -93 84 -96 79 -101 74 -104 70 -108 64 -112 59 -115 53 -118 48 -121 41 -124 36 -126 30 -129 24 -131 17 -134 10 -135 3 -137 29 0 -4 139 -10 136 -17 135 -24 133 -30 130 -36 128 -43 125 -48 122 -54 119 -59 117 -65 112 -70 110 -75 105 -80 102 -85 98 -89 93 -93 89 -98 85 -102 80 -105 75 -110 70 -112 65 -117 59 -119 54 -122 48 -125 43 -128 36 -130 30 -133 24 -135 17 -136 10 -139 4 0 0zm-2693 -2693l29 0 0 0 3 137 10 135 17 134 24 131 30 129 36 126 41 124 48 121 53 118 59 115 64 112 70 108 74 104 79 101 84 96 88 93 93 88 96 84 101 79 104 74 108 70 112 64 115 59 118 53 121 48 124 41 126 36 129 30 131 24 134 17 135 10 137 3 0 29 -139 -4 -136 -10 -135 -17 -133 -24 -130 -30 -128 -36 -125 -43 -122 -48 -119 -54 -117 -59 -112 -65 -110 -70 -105 -75 -102 -80 -98 -85 -93 -89 -89 -93 -85 -98 -80 -102 -75 -105 -70 -110 -65 -112 -59 -117 -54 -119 -48 -122 -43 -125 -36 -128 -30 -130 -24 -133 -17 -135 -10 -136 -4 -139 0 0zm2693 -2693l0 29 0 0 -137 3 -135 10 -134 17 -131 24 -129 30 -126 36 -124 41 -121 48 -118 53 -115 59 -112 64 -108 70 -104 74 -101 79 -96 84 -93 88 -88 93 -84 96 -79 101 -74 104 -70 108 -64 112 -59 115 -53 118 -48 121 -41 124 -36 126 -30 129 -24 131 -17 134 -10 135 -3 137 -29 0 4 -139 10 -136 17 -135 24 -133 30 -130 36 -128 43 -125 48 -122 54 -119 59 -117 65 -112 70 -110 75 -105 80 -102 85 -98 89 -93 93 -89 98 -85 102 -80 105 -75 110 -70 112 -65 117 -59 119 -54 122 -48 125 -43 128 -36 130 -30 133 -24 135 -17 136 -10 139 -4 0 0z"/>
    </g>
   </g>
   <polygon class="fil12" points="1505,2524 1578,2524 1578,2107 1764,2524 1816,2524 2001,2108 2001,2524 2074,2524 2074,1966 1996,1966 1790,2427 1584,1966 1505,1966 "/>
   <polygon id="1" class="fil13 str4" points="1505,2524 1578,2524 1578,2107 1764,2524 1816,2524 2001,2108 2001,2524 2074,2524 2074,1966 1996,1966 1790,2427 1584,1966 1505,1966 "/>
   <polygon class="fil14" points="3879,3885 3879,4332 3585,3885 3511,3885 3511,4448 3585,4448 3585,4000 3879,4448 3953,4448 3953,3885 "/>
   <polygon id="1" class="fil13 str5" points="3879,3885 3879,4332 3585,3885 3511,3885 3511,4448 3585,4448 3585,4000 3879,4448 3953,4448 3953,3885 "/>
   <path class="fil15" d="M1898 4051c0,63 -36,108 -119,108l-108 0 0 -213 108 0c84,0 119,41 119,105zm-300 -165l0 561 73 0 0 -229 89 0 134 229 87 0 -141 -235c95,-21 134,-90 134,-161 0,-92 -63,-165 -195,-165l-181 0z"/>
   <path id="1" class="fil13 str6" d="M1898 4051c0,63 -36,108 -119,108l-108 0 0 -213 108 0c84,0 119,41 119,105zm-300 -165l0 561 73 0 0 -229 89 0 134 229 87 0 -141 -235c95,-21 134,-90 134,-161 0,-92 -63,-165 -195,-165l-181 0z"/>
   <polygon class="fil14" points="3883,1964 3581,1964 3581,2526 3883,2526 3883,2466 3654,2466 3654,2273 3859,2273 3859,2212 3654,2212 3654,2024 3883,2024 "/>
   <polygon id="1" class="fil13 str7" points="3883,1964 3581,1964 3581,2526 3883,2526 3883,2466 3654,2466 3654,2273 3859,2273 3859,2212 3654,2212 3654,2024 3883,2024 "/>
  </g>
 </g>
</svg>
