<?xml version="1.0" encoding="UTF-8"?>
<!DOCTYPE svg PUBLIC "-//W3C//DTD SVG 1.1//EN" "http://www.w3.org/Graphics/SVG/1.1/DTD/svg11.dtd">
<!-- Creator: CorelDRAW 2019 (64 Bit) -->
<svg xmlns="http://www.w3.org/2000/svg" xml:space="preserve" width="222.941mm" height="66.2358mm" version="1.1" style="shape-rendering:geometricPrecision; text-rendering:geometricPrecision; image-rendering:optimizeQuality; fill-rule:evenodd; clip-rule:evenodd"
viewBox="0 0 22293 6623.27"
 xmlns:xlink="http://www.w3.org/1999/xlink">
 <defs>
  <style type="text/css">
   <![CDATA[
    .str2 {stroke:#373435;stroke-width:20;stroke-miterlimit:22.9256}
    .str1 {stroke:#525849;stroke-width:20;stroke-miterlimit:22.9256}
    .str3 {stroke:#69A31B;stroke-width:20;stroke-miterlimit:22.9256}
    .str0 {stroke:#828282;stroke-width:20;stroke-miterlimit:22.9256}
    .str9 {stroke:black;stroke-width:7.62;stroke-miterlimit:22.9256}
    .str8 {stroke:#828282;stroke-width:7.62;stroke-miterlimit:22.9256}
    .str7 {stroke:white;stroke-width:7.62;stroke-miterlimit:22.9256}
    .str6 {stroke:#53C1DE;stroke-width:35.68;stroke-linecap:round;stroke-linejoin:round;stroke-miterlimit:22.9256}
    .str4 {stroke:#589636;stroke-width:35.68;stroke-linecap:round;stroke-linejoin:round;stroke-miterlimit:22.9256}
    .str5 {stroke:white;stroke-width:35.68;stroke-linecap:round;stroke-linejoin:round;stroke-miterlimit:22.9256}
    .fil7 {fill:none}
    .fil13 {fill:none;fill-rule:nonzero}
    .fil3 {fill:black}
    .fil2 {fill:#525849}
    .fil6 {fill:#53C1DE}
    .fil9 {fill:#589636}
    .fil4 {fill:#69A31B}
    .fil1 {fill:#828282}
    .fil8 {fill:#A6A385}
    .fil5 {fill:white}
    .fil0 {fill:white}
    .fil17 {fill:#373435;fill-rule:nonzero}
    .fil10 {fill:#373435;fill-rule:nonzero}
    .fil15 {fill:#53C1DE;fill-rule:nonzero}
    .fil12 {fill:#589636;fill-rule:nonzero}
    .fil18 {fill:#828282;fill-rule:nonzero}
    .fil11 {fill:#FEFEFE;fill-rule:nonzero}
    .fil14 {fill:white;fill-rule:nonzero}
    .fil16 {fill:white;fill-rule:nonzero}
   ]]>
  </style>
 </defs>
 <g id="Camada_x0020_1">
  <metadata id="CorelCorpID_0Corel-Layer"/>
  <g id="_2940094165792">
   <path class="fil0" d="M1305.16 0l19682.68 0c720.7,0 1305.16,481.38 1305.16,1074.98l0 4473.31c0,593.59 -584.46,1074.97 -1305.16,1074.97l-19682.68 0.01c-720.69,-0.01 -1305.15,-481.39 -1305.15,-1074.99l-0.01 -4473.3c0.01,-593.6 584.47,-1074.98 1305.17,-1074.98z"/>
   <g id="_483624016">
    <path class="fil1 str0" d="M10998.53 3311.63l0 -3288.14c1816.25,0 3288.14,1471.89 3288.14,3288.14l-3288.14 0z"/>
    <path class="fil2 str1" d="M10998.53 3311.63l0 -3288.14c-1816.25,0 -3288.14,1471.89 -3288.14,3288.14l3288.14 0z"/>
    <path class="fil3 str2" d="M10998.53 3311.63l0 3288.14c-1816.25,0 -3288.14,-1471.89 -3288.14,-3288.14l3288.14 0z"/>
    <path class="fil4 str3" d="M10998.53 3311.63l0 3288.14c1816.25,0 3288.14,-1471.89 3288.14,-3288.14l-3288.14 0z"/>
    <g>
     <path class="fil5" d="M11843.88 2013.11c-176.96,0 -306.1,-132.72 -306.1,-357.51 0,-225.98 129.13,-359.9 306.1,-361.09 193.7,0 290.56,153.04 290.56,298.92 0,34.68 0,46.64 -1.2,70.55l-571.53 3.59c3.58,224.79 138.69,322.83 282.18,322.83 141.09,-1.19 247.51,-86.09 267.84,-224.79l22.72 0c-21.53,143.48 -126.74,246.31 -290.56,247.51zm-282.18 -369.46l552.4 -2.4c10.76,-225.98 -129.13,-324.02 -270.23,-322.83 -144.67,1.2 -282.18,102.84 -282.18,325.23z"/>
     <polygon class="fil5" points="12758.58,2001.15 12495.53,1665.17 12233.68,2001.15 12209.76,2001.15 12482.38,1648.43 12214.54,1310.05 12239.65,1310.05 12497.92,1638.86 12754.99,1310.05 12776.51,1310.05 12509.88,1654.41 12783.69,2001.15 "/>
    </g>
    <g>
     <path class="fil6" d="M10125.68 3898.71l0 0c-9.57,-2.39 -19.14,-5.98 -29.9,-8.37 2.39,-5.98 3.59,-13.15 4.79,-19.13 21.52,-106.41 7.17,-190.11 -40.66,-218.81 -46.63,-26.31 -121.96,1.19 -199.68,68.15 -7.17,7.18 -14.35,13.16 -21.52,20.33 -4.79,-4.78 -9.57,-9.56 -14.35,-14.35 -80.12,-70.55 -160.22,-101.63 -209.25,-72.94 -46.63,27.51 -59.78,106.41 -40.65,206.86 2.39,9.56 4.78,19.13 5.98,28.7 -10.77,3.58 -22.72,7.17 -32.29,10.76 -94.46,33.48 -154.24,84.89 -154.24,137.5 0,55 64.57,111.19 162.61,143.48 8.37,3.58 15.55,5.98 23.92,8.37 -2.4,10.76 -4.79,21.52 -7.18,32.28 -19.13,96.86 -3.59,175.77 41.85,202.07 47.83,27.51 127.94,0 205.66,-69.35 7.18,-4.78 13.15,-10.76 19.13,-16.74 7.18,8.37 15.55,15.54 23.92,22.72 76.53,64.57 150.65,90.88 196.09,64.57 47.83,-27.5 63.37,-111.2 44.24,-212.83 -1.19,-8.37 -3.58,-15.55 -5.98,-23.92 5.98,-2.39 10.77,-3.59 16.74,-4.78 101.64,-34.68 167.4,-88.49 167.4,-144.68 1.19,-55 -60.98,-106.41 -156.63,-139.89zm-240.34 -149.46c65.77,-57.39 127.94,-80.11 155.44,-63.37l0 0c28.7,16.74 40.65,86.09 22.72,176.96 -1.2,5.98 -3.59,11.96 -4.79,17.93 -37.06,-8.37 -76.52,-15.54 -118.36,-19.13 -25.12,-34.67 -50.23,-65.76 -75.34,-94.46 5.98,-5.98 13.16,-13.15 20.33,-17.94zm-229.57 333.6c8.37,15.54 15.54,31.09 25.11,45.43 8.37,16.74 17.93,31.09 27.5,46.64 -28.7,-3.59 -56.2,-8.37 -81.31,-13.15 7.17,-25.12 16.74,-51.42 28.7,-78.92zm0 -89.69c-11.96,-26.3 -21.53,-52.61 -28.7,-77.72 25.11,-4.78 52.61,-9.56 81.31,-13.15 -9.57,14.35 -19.13,29.89 -27.5,44.24 -9.57,15.55 -16.74,31.09 -25.11,46.63zm20.33 45.44c11.95,-25.11 25.11,-49.02 38.26,-71.74l0 0c13.15,-22.72 27.5,-46.64 43.05,-68.16 26.3,-2.39 52.61,-3.59 81.31,-3.59 27.5,0 53.81,1.2 80.11,3.59 15.55,22.72 29.9,45.44 43.05,68.16 14.35,22.72 26.31,46.63 38.26,71.74 -11.95,23.92 -23.91,47.83 -38.26,71.75l0 0c-13.15,23.91 -27.5,46.63 -43.05,69.35 -26.3,1.2 -53.81,3.59 -81.31,3.59 -27.5,0 -55,-1.2 -80.11,-3.59 -15.55,-21.52 -29.9,-44.24 -43.05,-68.16 -14.35,-25.11 -26.31,-49.02 -38.26,-72.94zm319.24 89.68c8.37,-15.54 17.94,-31.09 25.11,-46.63 11.96,27.5 22.72,53.81 31.09,78.92 -26.31,4.78 -53.81,10.76 -83.7,14.35 9.56,-15.55 19.13,-31.09 27.5,-46.64zm25.11 -135.11c-7.17,-15.54 -16.74,-31.08 -25.11,-46.63l0 0c-8.37,-14.35 -17.94,-29.89 -27.5,-44.24 28.7,3.59 56.2,8.37 81.31,14.35 -7.18,25.11 -17.94,50.22 -28.7,76.52zm-181.74 -198.48l0 0c16.74,19.13 34.67,40.66 51.41,63.38 -34.67,-1.2 -70.55,-1.2 -105.21,0 17.93,-22.72 35.87,-44.25 53.81,-63.38zm-205.66 -108.8c29.89,-16.74 95.66,8.37 166.2,69.35 3.58,3.59 8.37,8.37 13.15,11.96 -26.31,28.7 -52.61,59.79 -76.53,94.46 -41.85,3.59 -82.5,9.57 -118.37,17.94 -2.39,-8.37 -4.78,-17.94 -5.97,-27.5l0 0c-17.94,-86.1 -5.98,-149.46 21.52,-166.2zm-43.05 466.32c-7.17,-2.39 -14.35,-4.78 -21.52,-7.18 -43.05,-15.54 -78.92,-33.48 -104.03,-55 -21.52,-19.13 -33.48,-38.26 -33.48,-52.61 0,-33.48 49.02,-74.14 129.13,-101.64 9.56,-3.59 20.33,-7.18 31.09,-9.57 10.76,35.88 25.11,74.14 43.04,112.39 -17.93,38.27 -33.48,76.53 -44.24,113.59zm205.66 173.37c-33.48,29.9 -68.16,51.42 -99.25,62.18l0 0c-27.5,9.57 -49.02,9.57 -62.18,2.39 -28.69,-16.74 -39.46,-78.92 -23.91,-162.61 2.39,-10.76 3.59,-19.13 5.98,-29.89 37.07,8.37 76.53,14.35 120.76,17.93 23.91,34.68 50.22,65.77 76.53,94.47 -5.98,4.78 -11.96,10.76 -17.94,15.54zm44.24 -43.04c-19.13,-19.14 -35.87,-40.66 -53.81,-64.57 16.74,1.19 34.68,2.39 52.62,2.39 17.93,0 35.87,-1.2 53.81,-2.39 -17.94,23.91 -35.88,45.43 -52.62,64.57zm230.77 52.61c-4.78,28.7 -15.54,47.83 -28.7,55 -28.69,16.74 -88.48,-4.78 -153.04,-59.78 -7.18,-5.98 -14.35,-13.16 -22.72,-20.33 25.11,-27.5 50.22,-59.79 75.33,-95.66 43.05,-3.59 83.7,-9.57 120.76,-17.94 1.2,7.18 2.39,14.35 4.78,20.33l0 0c8.37,46.63 9.57,87.29 3.59,118.37zm32.29 -188.92l0 0c-5.98,1.2 -10.77,2.39 -15.55,3.59 -10.76,-35.87 -26.3,-72.94 -45.44,-112.39 17.94,-38.27 33.48,-76.53 43.05,-111.2 9.57,2.39 19.13,5.98 27.5,8.37 81.31,27.51 131.52,69.36 131.52,101.64 1.2,35.87 -52.61,80.12 -141.08,110z"/>
     <circle class="fil6" cx="9838.71" cy="4037.42" r="80.11"/>
    </g>
    <g>
     <circle class="fil4" cx="12160.74" cy="4038.61" r="515.34"/>
     <g>
      <path class="fil5" d="M12129.65 3666.76c17.93,-10.77 43.04,-10.77 62.17,0 94.47,52.61 188.92,107.6 284.58,160.22 16.74,10.76 28.7,29.89 28.7,50.22l0 322.83c0,21.52 -13.15,41.85 -32.29,51.42 -94.46,53.8 -188.91,106.41 -283.38,160.22 -19.13,11.95 -44.24,9.56 -62.18,-2.4 -28.69,-15.54 -57.39,-32.28 -86.09,-47.83 -5.98,-4.78 -11.96,-7.17 -15.54,-11.95 3.58,-5.98 9.56,-5.98 14.34,-8.37 11.96,-3.59 22.72,-9.57 33.49,-15.55 2.39,-1.19 5.97,-1.19 8.37,1.2 25.11,13.15 49.02,27.5 72.94,41.85 4.78,2.39 10.76,-1.2 15.54,-3.59 93.27,-52.61 185.33,-105.21 278.6,-157.83 3.59,-1.19 5.98,-4.78 4.78,-8.37 0,-106.41 0,-212.83 0,-319.24 1.2,-3.59 -1.19,-7.18 -5.98,-9.57 -93.26,-53.81 -187.72,-106.41 -282.18,-159.02 -2.39,-3.59 -7.18,-3.59 -10.76,0 -94.47,52.61 -188.92,105.21 -283.39,159.02 -3.58,2.39 -5.97,5.98 -5.97,9.57 0,106.41 0,212.83 0,319.24 0,3.59 2.39,7.18 4.78,8.37 25.11,14.35 50.22,28.7 75.33,43.05 14.35,7.17 32.29,11.96 47.83,5.98 13.15,-4.78 22.72,-17.94 22.72,-33.48 0,-105.22 0,-211.64 0,-316.85 0,-4.79 4.78,-8.37 9.57,-8.37 11.95,0 23.91,0 35.87,0 4.78,0 8.37,4.78 8.37,9.56 0,106.41 0,212.83 0,319.25 0,28.69 -11.96,59.78 -38.27,72.94 -31.09,16.74 -71.74,13.15 -104.03,-3.59 -27.5,-13.15 -53.8,-29.9 -81.31,-44.24 -17.93,-9.57 -31.09,-29.9 -31.09,-51.42l0 -322.83c0,-20.33 11.96,-40.66 29.9,-50.22 95.66,-53.81 190.11,-107.61 284.58,-160.22z"/>
      <path class="fil5" d="M12212.15 3890.35c41.85,-2.39 84.9,-2.39 121.96,17.94 29.89,16.74 45.44,49.02 45.44,81.31 0,3.58 -4.79,5.98 -9.57,5.98 -11.96,0 -23.91,0 -35.87,0 -4.79,0 -7.18,-4.79 -8.37,-8.37 -3.59,-15.55 -11.96,-31.09 -26.31,-38.27 -21.52,-10.76 -47.83,-10.76 -71.74,-9.56 -17.94,0 -35.88,2.39 -51.42,11.95 -10.76,8.37 -15.55,23.92 -10.76,37.07 3.58,9.57 14.35,11.96 23.91,14.35 49.03,13.15 101.64,11.96 150.66,28.7 20.32,7.17 40.65,21.52 47.83,41.85 8.37,28.7 4.78,62.18 -15.55,84.9 -16.74,19.13 -40.65,28.7 -64.57,34.67 -31.09,7.18 -63.37,7.18 -95.66,3.59 -31.09,-2.39 -62.18,-10.76 -84.9,-31.09 -20.32,-17.93 -29.89,-44.24 -29.89,-70.55 0,-4.78 4.78,-7.17 9.57,-7.17 11.95,0 23.91,0 35.87,0 4.78,0 8.37,3.59 9.56,8.37 2.4,14.35 7.18,29.89 19.14,38.26 25.11,15.55 56.2,14.35 83.7,15.55 23.91,-1.2 50.22,-1.2 68.16,-17.94 10.76,-8.37 14.34,-22.72 10.76,-35.87 -3.59,-9.57 -14.35,-15.55 -23.92,-17.94 -49.02,-15.54 -102.83,-10.76 -150.65,-27.5 -19.13,-7.17 -39.46,-20.33 -46.64,-40.65 -10.76,-28.7 -5.97,-64.57 16.75,-86.1 21.52,-22.72 52.61,-31.09 82.5,-33.48l0 0z"/>
     </g>
    </g>
    <g>
     <rect class="fil7" x="10999.72" y="987.21" width="2322.03" height="2322.03"/>
     <rect class="fil7" x="8676.5" y="987.21" width="2322.03" height="2322.03"/>
     <rect class="fil7" x="10999.72" y="3309.24" width="2322.03" height="2322.03"/>
     <rect class="fil7" x="8676.5" y="3309.24" width="2322.03" height="2322.03"/>
    </g>
    <g>
     <path class="fil5" d="M9863.82 2368.24l-31.09 -10.76c0,0 4.78,-157.83 -52.61,-169.79 -37.07,-44.24 5.97,-1859.29 142.28,-5.98 0,0 -46.64,23.92 -55.01,64.57 -8.37,38.26 -3.58,121.96 -3.58,121.96l0 0z"/>
     <path class="fil8" d="M9863.82 2368.24l-31.09 -10.76c0,0 4.78,-157.83 -52.61,-169.79 -37.07,-44.24 5.97,-1859.29 142.28,-5.98 0,0 -46.64,23.92 -55.01,64.57 -8.37,38.26 -3.58,121.96 -3.58,121.96l0 0z"/>
     <path class="fil5" d="M9881.75 2215.18c0,0 271.43,-178.15 208.05,-550.01 -62.18,-270.23 -205.65,-358.71 -222.4,-392.19 -16.74,-25.11 -34.67,-66.96 -34.67,-66.96l11.96 750.89c0,1.2 -22.72,230.77 37.06,258.27z"/>
     <path class="fil9" d="M9881.75 2215.18c0,0 271.43,-178.15 208.05,-550.01 -62.18,-270.23 -205.65,-358.71 -222.4,-392.19 -16.74,-25.11 -34.67,-66.96 -34.67,-66.96l11.96 750.89c0,1.2 -22.72,230.77 37.06,258.27z"/>
     <path class="fil5" d="M9817.18 2224.75c0,0 -253.48,-174.57 -239.14,-480.67 14.35,-304.91 193.71,-455.56 229.58,-483.06 22.72,-23.92 22.72,-33.48 23.91,-57.4 15.55,34.68 13.16,509.37 14.35,564.36 8.37,215.23 -10.76,416.1 -28.7,456.76z"/>
     <path class="fil9" d="M9817.18 2224.75c0,0 -253.48,-174.57 -239.14,-480.67 14.35,-304.91 193.71,-455.56 229.58,-483.06 22.72,-23.92 22.72,-33.48 23.91,-57.4 15.55,34.68 13.16,509.37 14.35,564.36 8.37,215.23 -10.76,416.1 -28.7,456.76z"/>
    </g>
    <g>
     <g>
      <path class="fil10" d="M13843.07 3311.63l-33.48 0 0 0 -3.59 -144.68 -10.76 -142.28 -17.94 -141.09 -25.11 -138.69 -31.09 -136.31 -38.26 -132.72 -44.24 -130.32 -50.23 -127.94 -56.2 -124.34 -62.17 -121.96 -66.97 -117.17 -74.13 -113.59 -77.73 -111.19 -83.7 -105.22 -88.48 -102.83 -93.27 -96.86 -96.86 -93.27 -102.83 -88.48 -105.22 -83.7 -111.19 -77.73 -113.59 -74.13 -117.17 -66.97 -121.96 -62.17 -124.34 -56.2 -127.94 -50.23 -130.32 -44.24 -132.72 -38.26 -136.31 -31.09 -138.69 -25.11 -141.09 -17.94 -142.28 -10.76 -144.68 -3.59 0 -33.48 145.87 3.59 144.68 10.76 142.28 17.94 141.09 25.11 137.5 32.28 135.11 38.27 131.52 44.24 129.13 51.42 126.74 56.2 121.96 63.37 119.56 68.16 114.78 74.13 112.39 78.92 107.61 84.9 102.83 89.68 99.25 94.47 93.27 98.05 89.68 102.83 84.9 107.61 78.92 112.39 74.13 114.78 68.16 119.56 63.37 121.96 56.2 126.74 51.42 129.13 44.24 131.52 39.46 135.11 31.09 137.5 25.11 141.09 17.94 142.28 10.76 144.68 3.59 145.87 0 0zm-2844.54 2844.54l0 -33.48 0 0 144.68 -3.59 142.28 -10.76 141.09 -17.94 138.69 -25.11 136.31 -31.09 132.72 -38.26 130.32 -44.24 127.94 -50.23 124.34 -56.2 121.96 -62.17 117.17 -66.97 113.59 -74.13 111.19 -77.73 105.22 -83.7 102.83 -88.48 96.86 -93.27 93.27 -96.86 88.48 -102.83 83.7 -105.22 77.73 -111.19 74.13 -113.59 66.97 -117.17 62.17 -121.96 56.2 -124.34 50.23 -127.94 44.24 -130.32 38.26 -132.72 31.09 -136.31 25.11 -138.69 17.94 -141.09 10.76 -142.28 3.59 -144.68 33.48 0 -3.59 145.87 -10.76 144.68 -17.94 142.28 -25.11 141.09 -31.09 137.5 -39.46 135.11 -44.24 131.52 -51.42 129.13 -56.2 126.74 -63.37 121.96 -68.16 119.56 -74.13 114.78 -78.92 112.39 -84.9 107.61 -89.68 102.83 -93.27 99.25 -99.25 93.27 -102.83 89.68 -107.61 84.9 -112.39 78.92 -114.78 74.13 -119.56 68.16 -121.96 63.37 -126.74 56.2 -129.13 51.42 -131.52 44.24 -135.11 39.46 -137.5 31.09 -141.09 25.11 -142.28 17.94 -144.68 10.76 -145.87 3.59 0 0zm-2844.54 -2844.54l33.48 0 0 0 3.59 144.68 10.76 142.28 17.94 141.09 25.11 138.69 31.09 136.31 38.26 132.72 44.24 130.32 50.23 127.94 56.2 124.34 62.17 121.96 66.97 117.17 74.13 113.59 77.73 111.19 83.7 105.22 88.48 102.83 93.27 96.86 96.86 93.27 102.83 88.48 105.22 83.7 111.19 77.73 113.59 74.13 117.17 66.97 121.96 62.17 124.34 56.2 127.94 50.23 130.32 44.24 132.72 38.26 136.31 31.09 138.69 25.11 141.09 17.94 142.28 10.76 144.68 3.59 0 33.48 -145.87 -3.59 -144.68 -10.76 -142.28 -17.94 -141.09 -25.11 -137.5 -31.09 -135.11 -39.46 -131.52 -44.24 -129.13 -51.42 -126.74 -56.2 -121.96 -63.37 -119.56 -68.16 -114.78 -74.13 -112.39 -78.92 -107.61 -84.9 -102.83 -89.68 -98.05 -93.27 -94.47 -99.25 -89.68 -102.83 -84.9 -107.61 -78.92 -112.39 -74.13 -114.78 -68.16 -119.56 -63.37 -121.96 -56.2 -126.74 -51.42 -129.13 -44.24 -131.52 -38.27 -135.11 -32.28 -137.5 -25.11 -141.09 -17.94 -142.28 -10.76 -144.68 -3.59 -145.87 0 0zm2844.54 -2844.54l0 33.48 0 0 -144.68 3.59 -142.28 10.76 -141.09 17.94 -138.69 25.11 -136.31 31.09 -132.72 38.26 -130.32 44.24 -127.94 50.23 -124.34 56.2 -121.96 62.17 -117.17 66.97 -113.59 74.13 -111.19 77.73 -105.22 83.7 -102.83 88.48 -96.86 93.27 -93.27 96.86 -88.48 102.83 -83.7 105.22 -77.73 111.19 -74.13 113.59 -66.97 117.17 -62.17 121.96 -56.2 124.34 -50.23 127.94 -44.24 130.32 -38.26 132.72 -31.09 136.31 -25.11 138.69 -17.94 141.09 -10.76 142.28 -3.59 144.68 -33.48 0 3.59 -145.87 10.76 -144.68 17.94 -142.28 25.11 -141.09 32.28 -137.5 38.27 -135.11 44.24 -131.52 51.42 -129.13 56.2 -126.74 63.37 -121.96 68.16 -119.56 74.13 -114.78 78.92 -112.39 84.9 -107.61 89.68 -102.83 94.47 -98.05 98.05 -94.47 102.83 -89.68 107.61 -84.9 112.39 -78.92 114.78 -74.13 119.56 -68.16 121.96 -63.37 126.74 -56.2 129.13 -51.42 131.52 -44.24 135.11 -38.27 137.5 -32.28 141.09 -25.11 142.28 -17.94 144.68 -10.76 145.87 -3.59 0 0z"/>
     </g>
     <g>
      <path class="fil11" d="M13976.99 3311.63l-33.48 0 0 0 -3.59 -151.85 -11.95 -149.46 -19.14 -147.06 -25.11 -144.68 -33.48 -143.48 -39.46 -138.7 -46.63 -137.5 -52.61 -133.91 -58.6 -130.33 -64.57 -126.74 -71.74 -123.15 -76.53 -119.56 -81.31 -115.98 -88.48 -111.19 -92.08 -106.41 -98.05 -101.64 -101.64 -98.05 -106.41 -92.08 -111.19 -88.48 -115.98 -81.31 -119.56 -76.53 -123.15 -71.74 -126.74 -64.57 -130.33 -58.6 -133.91 -52.61 -137.5 -46.63 -138.7 -39.46 -143.48 -33.48 -144.68 -25.11 -147.06 -19.14 -149.46 -11.95 -151.85 -3.59 0 -33.48 153.05 3.59 151.85 11.95 148.26 17.94 147.06 26.31 144.68 33.48 141.09 40.65 138.69 46.64 135.11 52.61 131.53 59.79 129.13 65.76 124.34 71.75 120.76 77.72 117.18 83.7 112.39 88.49 107.6 93.27 104.03 98.05 98.05 104.03 93.27 107.6 88.49 112.39 83.7 117.18 77.72 120.76 71.75 124.34 65.76 129.13 59.79 131.53 52.61 135.11 46.64 138.69 40.65 141.09 33.48 144.68 26.31 147.06 17.94 148.26 11.95 151.85 3.59 153.05 0 0zm-2978.46 2978.46l0 -33.48 0 0 151.85 -3.59 149.46 -11.95 147.06 -19.14 144.68 -25.11 143.48 -33.48 138.7 -39.46 137.5 -46.63 133.91 -52.61 130.33 -58.6 126.74 -64.57 123.15 -71.74 119.56 -76.53 115.98 -81.31 111.19 -88.48 106.41 -92.08 101.64 -98.05 98.05 -101.64 92.08 -106.41 88.48 -111.19 81.31 -115.98 76.53 -119.56 71.74 -123.15 64.57 -126.74 58.6 -130.33 52.61 -133.91 46.63 -137.5 39.46 -138.7 33.48 -143.48 25.11 -144.68 19.14 -147.06 11.95 -149.46 3.59 -151.85 33.48 0 -3.59 153.05 -11.95 151.85 -17.94 148.26 -26.31 147.06 -33.48 144.68 -40.65 141.09 -46.64 138.69 -52.61 135.11 -59.79 131.53 -65.76 129.13 -71.75 124.34 -77.72 120.76 -83.7 117.18 -88.49 112.39 -93.27 107.6 -98.05 104.03 -104.03 98.05 -107.6 93.27 -112.39 88.49 -117.18 83.7 -120.76 77.72 -124.34 71.75 -129.13 65.76 -131.53 59.79 -135.11 52.61 -138.69 46.64 -141.09 40.65 -144.68 33.48 -147.06 26.31 -148.26 17.94 -151.85 11.95 -153.05 3.59 0 0zm-2978.46 -2978.46l33.48 0 0 0 3.59 151.85 11.95 149.46 19.14 147.06 25.11 144.68 33.48 143.48 39.46 138.7 46.63 137.5 52.61 133.91 58.6 130.33 64.57 126.74 71.74 123.15 76.53 119.56 81.31 115.98 88.48 111.19 92.08 106.41 98.05 101.64 101.64 98.05 106.41 92.08 111.19 88.48 115.98 81.31 119.56 76.53 123.15 71.74 126.74 64.57 130.33 58.6 133.91 52.61 137.5 46.63 138.7 39.46 143.48 33.48 144.68 25.11 147.06 19.14 149.46 11.95 151.85 3.59 0 33.48 -153.05 -3.59 -151.85 -11.95 -148.26 -17.94 -147.06 -26.31 -144.68 -33.48 -141.09 -40.65 -138.69 -46.64 -135.11 -52.61 -131.53 -59.79 -129.13 -65.76 -124.34 -71.75 -120.76 -77.72 -117.18 -83.7 -112.39 -88.49 -107.6 -93.27 -104.03 -98.05 -98.05 -104.03 -93.27 -107.6 -88.49 -112.39 -83.7 -117.18 -77.72 -120.76 -71.75 -124.34 -65.76 -129.13 -59.79 -131.53 -52.61 -135.11 -46.64 -138.69 -40.65 -141.09 -33.48 -144.68 -26.31 -147.06 -17.94 -148.26 -11.95 -151.85 -3.59 -153.05 0 0zm2978.46 -2978.46l0 33.48 0 0 -151.85 3.59 -149.46 11.95 -147.06 19.14 -144.68 25.11 -143.48 33.48 -138.7 39.46 -137.5 46.63 -133.91 52.61 -130.33 58.6 -126.74 64.57 -123.15 71.74 -119.56 76.53 -115.98 81.31 -111.19 88.48 -106.41 92.08 -101.64 98.05 -98.05 101.64 -92.08 106.41 -88.48 111.19 -81.31 115.98 -76.53 119.56 -71.74 123.15 -64.57 126.74 -58.6 130.33 -52.61 133.91 -46.63 137.5 -39.46 138.7 -33.48 143.48 -25.11 144.68 -19.14 147.06 -11.95 149.46 -3.59 151.85 -33.48 0 3.59 -153.05 11.95 -151.85 17.94 -148.26 26.31 -147.06 33.48 -144.68 40.65 -141.09 46.64 -138.69 52.61 -135.11 59.79 -131.53 65.76 -129.13 71.75 -124.34 77.72 -120.76 83.7 -117.18 88.49 -112.39 93.27 -107.6 98.05 -104.03 104.03 -98.05 107.6 -93.27 112.39 -88.49 117.18 -83.7 120.76 -77.72 124.34 -71.75 129.13 -65.76 131.53 -59.79 135.11 -52.61 138.69 -46.64 141.09 -40.65 144.68 -33.48 147.06 -26.31 148.26 -17.94 151.85 -11.95 153.05 -3.59 0 0z"/>
     </g>
     <g>
      <path class="fil10" d="M14109.71 3311.63l-33.48 0 0 0 -4.78 -157.83 -11.96 -156.63 -19.13 -154.24 -27.51 -151.85 -33.48 -148.26 -41.85 -145.88 -49.02 -143.47 -55.01 -139.9 -60.98 -136.3 -68.16 -132.72 -74.13 -127.93 -80.12 -125.55 -86.09 -120.76 -90.88 -115.98 -96.85 -111.19 -101.64 -107.61 -107.61 -101.64 -111.19 -96.85 -115.98 -90.88 -120.76 -86.09 -125.55 -80.12 -127.93 -74.13 -132.72 -68.16 -136.3 -60.98 -139.9 -55.01 -143.47 -49.02 -145.88 -41.85 -148.26 -33.48 -151.85 -27.51 -154.24 -19.13 -156.63 -11.96 -157.83 -4.78 0 -33.48 160.22 3.59 157.83 11.95 155.44 20.33 153.04 27.5 150.65 34.68 148.27 41.85 144.67 49.03 141.09 55 137.5 62.18 133.91 69.35 130.33 75.34 126.74 80.11 121.96 87.29 117.17 92.07 113.58 98.05 107.61 102.84 102.84 107.61 98.05 113.58 92.07 117.17 87.29 121.96 80.11 126.74 75.34 130.33 69.35 133.91 62.18 137.5 55 141.09 49.03 144.67 41.85 148.27 34.68 150.65 27.5 153.04 20.33 155.44 11.95 157.83 3.59 160.22 0 0zm-3111.18 3111.18l0 -33.48 0 0 157.83 -4.78 156.63 -11.96 154.24 -19.13 151.85 -27.51 148.26 -33.48 145.88 -41.85 143.47 -49.02 139.9 -55.01 136.3 -60.98 132.72 -68.16 127.93 -74.13 125.55 -80.12 120.76 -86.09 115.98 -90.88 111.19 -96.85 107.61 -101.64 101.64 -107.61 96.85 -111.19 90.88 -115.98 86.09 -120.76 80.12 -125.55 74.13 -127.93 68.16 -132.72 60.98 -136.3 55.01 -139.9 49.02 -143.47 41.85 -145.88 33.48 -148.26 27.51 -151.85 19.13 -154.24 11.96 -156.63 4.78 -157.83 33.48 0 -3.59 160.22 -11.95 157.83 -20.33 155.44 -27.5 153.04 -34.68 150.65 -41.85 148.27 -49.03 144.67 -55 141.09 -62.18 137.5 -69.35 133.91 -75.34 130.33 -80.11 126.74 -87.29 121.96 -92.07 117.17 -98.05 113.58 -102.84 107.61 -107.61 102.84 -113.58 98.05 -117.17 92.07 -121.96 87.29 -126.74 80.11 -130.33 75.34 -133.91 69.35 -137.5 62.18 -141.09 55 -144.67 49.03 -148.27 41.85 -150.65 34.68 -153.04 27.5 -155.44 20.33 -157.83 11.95 -160.22 3.59 0 0zm-3111.18 -3111.18l33.48 0 0 0 4.78 157.83 11.96 156.63 19.13 154.24 27.51 151.85 33.48 148.26 41.85 145.88 49.02 143.47 55.01 139.9 60.98 136.3 68.16 132.72 74.13 127.93 80.12 125.55 86.09 120.76 90.88 115.98 96.85 111.19 101.64 107.61 107.61 101.64 111.19 96.85 115.98 90.88 120.76 86.09 125.55 80.12 127.93 74.13 132.72 68.16 136.3 60.98 139.9 55.01 143.47 49.02 145.88 41.85 148.26 33.48 151.85 27.51 154.24 19.13 156.63 11.96 157.83 4.78 0 33.48 -160.22 -3.59 -157.83 -11.95 -155.44 -20.33 -153.04 -27.5 -150.65 -34.68 -148.27 -41.85 -144.67 -49.03 -141.09 -55 -137.5 -62.18 -133.91 -69.35 -130.33 -75.34 -126.74 -80.11 -121.96 -87.29 -117.17 -92.07 -113.58 -98.05 -107.61 -102.84 -102.84 -107.61 -98.05 -113.58 -92.07 -117.17 -87.29 -121.96 -80.11 -126.74 -75.34 -130.33 -69.35 -133.91 -62.18 -137.5 -55 -141.09 -49.03 -144.67 -41.85 -148.27 -34.68 -150.65 -27.5 -153.04 -20.33 -155.44 -11.95 -157.83 -3.59 -160.22 0 0zm3111.18 -3111.18l0 33.48 0 0 -157.83 4.78 -156.63 11.96 -154.24 19.13 -151.85 27.51 -148.26 33.48 -145.88 41.85 -143.47 49.02 -139.9 55.01 -136.3 60.98 -132.72 68.16 -127.93 74.13 -125.55 80.12 -120.76 86.09 -115.98 90.88 -111.19 96.85 -107.61 101.64 -101.64 107.61 -96.85 111.19 -90.88 115.98 -86.09 120.76 -80.12 125.55 -74.13 127.93 -68.16 132.72 -60.98 136.3 -55.01 139.9 -49.02 143.47 -41.85 145.88 -33.48 148.26 -27.51 151.85 -19.13 154.24 -11.96 156.63 -4.78 157.83 -33.48 0 3.59 -160.22 11.95 -157.83 20.33 -155.44 27.5 -153.04 34.68 -150.65 41.85 -148.27 49.03 -144.67 55 -141.09 62.18 -137.5 69.35 -133.91 75.34 -130.33 80.11 -126.74 87.29 -121.96 92.07 -117.17 98.05 -113.58 102.84 -107.61 107.61 -102.84 113.58 -98.05 117.17 -92.07 121.96 -87.29 126.74 -80.11 130.33 -75.34 133.91 -69.35 137.5 -62.18 141.09 -55 144.67 -49.03 148.27 -41.85 150.65 -34.68 153.04 -27.5 155.44 -20.33 157.83 -11.95 160.22 -3.59 0 0z"/>
     </g>
     <g>
      <path class="fil11" d="M14218.51 3311.63l-34.67 0 0 0 -3.59 -163.81 -11.96 -161.41 -20.33 -160.22 -28.69 -156.64 -35.88 -154.24 -43.04 -150.65 -49.03 -148.26 -57.39 -144.68 -63.38 -141.09 -70.55 -137.5 -76.53 -133.91 -83.7 -129.13 -88.48 -124.35 -94.47 -120.76 -100.44 -114.78 -105.22 -111.19 -111.19 -105.22 -114.78 -100.44 -120.76 -94.47 -124.35 -88.48 -129.13 -83.7 -133.91 -76.53 -137.5 -70.55 -141.09 -63.38 -144.68 -57.39 -148.26 -49.03 -150.65 -43.04 -154.24 -35.88 -156.64 -28.69 -160.22 -20.33 -161.41 -11.96 -163.81 -3.59 0 -34.67 166.2 4.78 162.61 11.96 161.42 20.33 159.02 28.69 155.44 35.88 153.04 43.04 149.46 51.42 145.87 57.4 142.28 64.57 139.9 70.54 133.91 77.73 131.52 83.7 125.55 89.68 121.95 95.66 117.18 101.64 111.19 106.41 106.41 111.19 101.64 117.18 95.66 121.95 89.68 125.55 83.7 131.52 77.73 133.91 70.54 139.9 64.57 142.28 57.4 145.87 51.42 149.46 43.04 153.04 35.88 155.44 28.69 159.02 20.33 161.42 11.96 162.61 4.78 166.2 0 0zm-3219.99 3219.99l0 -34.67 0 0 163.81 -3.59 161.41 -11.96 160.22 -20.33 156.64 -28.69 154.24 -35.88 150.65 -43.04 148.26 -49.03 144.68 -57.39 141.09 -63.38 137.5 -70.55 133.91 -76.53 129.13 -83.7 124.35 -88.48 120.76 -94.47 114.78 -100.44 111.19 -105.22 105.22 -111.19 100.44 -114.78 94.47 -120.76 88.48 -124.35 83.7 -129.13 76.53 -133.91 70.55 -137.5 63.38 -141.09 57.39 -144.68 49.03 -148.26 43.04 -150.65 35.88 -154.24 28.69 -156.64 20.33 -160.22 11.96 -161.41 3.59 -163.81 34.67 0 -4.78 166.2 -11.96 162.61 -20.33 161.42 -28.69 159.02 -35.88 155.44 -43.04 153.04 -51.42 149.46 -57.4 145.87 -64.57 142.28 -70.54 139.9 -77.73 133.91 -83.7 131.52 -89.68 125.55 -95.66 121.95 -101.64 117.18 -106.41 111.19 -111.19 106.41 -117.18 101.64 -121.95 95.66 -125.55 89.68 -131.52 83.7 -133.91 77.73 -139.9 70.54 -142.28 64.57 -145.87 57.4 -149.46 51.42 -153.04 43.04 -155.44 35.88 -159.02 28.69 -161.42 20.33 -162.61 11.96 -166.2 4.78 0 0zm-3219.99 -3219.99l34.67 0 0 0 3.59 163.81 11.96 161.41 20.33 160.22 28.69 156.64 35.88 154.24 43.04 150.65 49.03 148.26 57.39 144.68 63.38 141.09 70.55 137.5 76.53 133.91 83.7 129.13 88.48 124.35 94.47 120.76 100.44 114.78 105.22 111.19 111.19 105.22 114.78 100.44 120.76 94.47 124.35 88.48 129.13 83.7 133.91 76.53 137.5 70.55 141.09 63.38 144.68 57.39 148.26 49.03 150.65 43.04 154.24 35.88 156.64 28.69 160.22 20.33 161.41 11.96 163.81 3.59 0 34.67 -166.2 -4.78 -162.61 -11.96 -161.42 -20.33 -159.02 -28.69 -155.44 -35.88 -153.04 -43.04 -149.46 -51.42 -145.87 -57.4 -142.28 -64.57 -139.9 -70.54 -133.91 -77.73 -131.52 -83.7 -125.55 -89.68 -121.95 -95.66 -117.18 -101.64 -111.19 -106.41 -106.41 -111.19 -101.64 -117.18 -95.66 -121.95 -89.68 -125.55 -83.7 -131.52 -77.73 -133.91 -70.54 -139.9 -64.57 -142.28 -57.4 -145.87 -51.42 -149.46 -43.04 -153.04 -35.88 -155.44 -28.69 -159.02 -20.33 -161.42 -11.96 -162.61 -4.78 -166.2 0 0zm3219.99 -3219.99l0 34.67 0 0 -163.81 3.59 -161.41 11.96 -160.22 20.33 -156.64 28.69 -154.24 35.88 -150.65 43.04 -148.26 49.03 -144.68 57.39 -141.09 63.38 -137.5 70.55 -133.91 76.53 -129.13 83.7 -124.35 88.48 -120.76 94.47 -114.78 100.44 -111.19 105.22 -105.22 111.19 -100.44 114.78 -94.47 120.76 -88.48 124.35 -83.7 129.13 -76.53 133.91 -70.55 137.5 -63.38 141.09 -57.39 144.68 -49.03 148.26 -43.04 150.65 -35.88 154.24 -28.69 156.64 -20.33 160.22 -11.96 161.41 -3.59 163.81 -34.67 0 4.78 -166.2 11.96 -162.61 20.33 -161.42 28.69 -159.02 35.88 -155.44 43.04 -153.04 51.42 -149.46 57.4 -145.87 64.57 -142.28 70.54 -139.9 77.73 -133.91 83.7 -131.52 89.68 -125.55 95.66 -121.95 101.64 -117.18 106.41 -111.19 111.19 -106.41 117.18 -101.64 121.95 -95.66 125.55 -89.68 131.52 -83.7 133.91 -77.73 139.9 -70.54 142.28 -64.57 145.87 -57.4 149.46 -51.42 153.04 -43.04 155.44 -35.88 159.02 -28.69 161.42 -20.33 162.61 -11.96 166.2 -4.78 0 0z"/>
     </g>
    </g>
    <polygon class="fil12" points="9497.94,3029.45 9585.22,3029.45 9585.22,2530.85 9807.62,3029.45 9869.8,3029.45 10091,2532.04 10091,3029.45 10178.29,3029.45 10178.29,2362.26 10085.02,2362.26 9838.71,2913.47 9592.39,2362.26 9497.94,2362.26 "/>
    <polygon id="_1" class="fil13 str4" points="9497.94,3029.45 9585.22,3029.45 9585.22,2530.85 9807.62,3029.45 9869.8,3029.45 10091,2532.04 10091,3029.45 10178.29,3029.45 10178.29,2362.26 10085.02,2362.26 9838.71,2913.47 9592.39,2362.26 9497.94,2362.26 "/>
    <polygon class="fil14" points="12336.5,4656.78 12336.5,5191.25 11984.97,4656.78 11896.48,4656.78 11896.48,5329.96 11984.97,5329.96 11984.97,4794.28 12336.5,5329.96 12424.98,5329.96 12424.98,4656.78 "/>
    <polygon id="_1_0" class="fil13 str5" points="12336.5,4656.78 12336.5,5191.25 11984.97,4656.78 11896.48,4656.78 11896.48,5329.96 11984.97,5329.96 11984.97,4794.28 12336.5,5329.96 12424.98,5329.96 12424.98,4656.78 "/>
    <path class="fil15" d="M9967.85 4855.27c0,75.33 -43.05,129.13 -142.29,129.13l-129.13 0 0 -254.69 129.13 0c100.45,0 142.29,49.03 142.29,125.55zm-358.71 -197.29l0 670.78 87.29 0 0 -273.81 106.41 0 160.22 273.81 104.03 0 -168.59 -280.99c113.59,-25.11 160.22,-107.6 160.22,-192.5 0,-110 -75.33,-197.29 -233.16,-197.29l-216.42 0z"/>
    <path id="_1_1" class="fil13 str6" d="M9967.85 4855.27c0,75.33 -43.05,129.13 -142.29,129.13l-129.13 0 0 -254.69 129.13 0c100.45,0 142.29,49.03 142.29,125.55zm-358.71 -197.29l0 670.78 87.29 0 0 -273.81 106.41 0 160.22 273.81 104.03 0 -168.59 -280.99c113.59,-25.11 160.22,-107.6 160.22,-192.5 0,-110 -75.33,-197.29 -233.16,-197.29l-216.42 0z"/>
    <polygon class="fil14" points="12341.28,2359.87 11980.19,2359.87 11980.19,3031.85 12341.28,3031.85 12341.28,2960.1 12067.48,2960.1 12067.48,2729.33 12312.58,2729.33 12312.58,2656.39 12067.48,2656.39 12067.48,2431.6 12341.28,2431.6 "/>
    <polygon id="_1_2" class="fil13 str5" points="12341.28,2359.87 11980.19,2359.87 11980.19,3031.85 12341.28,3031.85 12341.28,2960.1 12067.48,2960.1 12067.48,2729.33 12312.58,2729.33 12312.58,2656.39 12067.48,2656.39 12067.48,2431.6 12341.28,2431.6 "/>
   </g>
   <g>
    <path class="fil4" d="M794.39 2336.63l4924.36 0c271.93,0.01 492.45,224.26 492.45,500.8l-0.01 1053.32c0.01,276.52 -220.51,500.77 -492.43,500.77l-4924.37 0.02c-271.91,-0.02 -492.43,-224.27 -492.43,-500.8l-0.01 -1053.33c0.01,-276.52 220.53,-500.77 492.45,-500.77l-0.01 -0.01z"/>
    <path class="fil3" d="M5636.35 2336.61l1432.69 0c224.51,0 406.57,175.67 406.57,392.3l-0.01 1270.34c0.01,216.62 -182.05,392.29 -406.55,392.29l-1432.7 0.01c-224.49,-0.01 -406.55,-175.68 -406.55,-392.31l-0.02 -1270.33c0.02,-216.63 182.08,-392.3 406.58,-392.3z"/>
    <path class="fil16" d="M5804.72 3479.53c0,-17.25 -6.14,-31.22 -18.42,-41.7 -12.28,-10.47 -33.87,-20.42 -64.66,-29.63 -53.77,-15.56 -94.41,-33.97 -121.81,-55.25 -27.51,-21.27 -41.27,-50.48 -41.27,-87.41 0,-37.05 15.77,-67.31 47.31,-90.7 31.53,-23.5 71.75,-35.25 120.74,-35.25 49.64,0 90.07,13.23 121.17,39.59 31.22,26.35 46.36,58.84 45.3,97.47l-0.64 1.8 -87.73 0c0,-20.53 -6.99,-37.15 -20.96,-49.96 -13.86,-12.7 -33.44,-19.05 -58.74,-19.05 -24.13,0 -42.86,5.3 -56.09,15.99 -13.23,10.68 -19.89,24.23 -19.89,40.85 0,15.13 7.09,27.62 21.27,37.36 14.18,9.73 38.63,20 73.34,30.9 49.85,13.76 87.52,32.07 113.13,54.82 25.71,22.76 38.52,52.6 38.52,89.54 0,38.63 -15.24,69.11 -45.72,91.44 -30.59,22.33 -70.8,33.44 -120.85,33.44 -49.11,0 -92.08,-12.7 -128.58,-37.99 -36.62,-25.3 -54.4,-60.86 -53.34,-106.46l0.64 -1.91 88.05 0c0,26.88 8.15,46.57 24.55,59.06 16.51,12.49 39.37,18.73 68.69,18.73 24.66,0 43.5,-5.08 56.51,-15.13 13.02,-10.16 19.48,-23.61 19.48,-40.54z"/>
    <path id="1" class="fil16" d="M6064 3180.04l0 82.13 56.41 0 0 63.5 -56.41 0 0 170.7c0,13.02 2.64,22.33 8.04,27.94 5.4,5.61 12.59,8.36 21.7,8.36 4.76,0 8.89,-0.21 12.27,-0.74 3.39,-0.53 7.41,-1.48 11.86,-2.65l7.83 65.2c-9.1,3.17 -17.99,5.5 -26.67,6.98 -8.68,1.59 -18.1,2.33 -28.26,2.33 -31.22,0 -55.25,-8.57 -72.07,-25.72 -16.83,-17.14 -25.3,-44.24 -25.3,-81.49l0 -170.91 -49 0 0 -63.5 49 0 0 -82.13 90.6 0z"/>
    <path id="2" class="fil16" d="M6375.03 3597.43c-3.39,-7.62 -6.24,-15.66 -8.57,-24.24 -2.44,-8.46 -4.13,-17.14 -5.08,-26.03 -9.32,16.4 -21.59,29.84 -36.83,40.53 -15.14,10.69 -33.34,16.09 -54.4,16.09 -35.14,0 -62.23,-9 -81.18,-27.09 -19.05,-18.1 -28.57,-42.76 -28.57,-73.88 0,-32.91 12.7,-58.31 37.99,-76.41 25.3,-18.09 62.23,-27.09 110.8,-27.09l50.59 0 0 -26.67c0,-16.09 -4.23,-28.58 -12.7,-37.47 -8.47,-8.89 -20.96,-13.33 -37.57,-13.33 -14.61,0 -25.93,3.6 -33.87,10.69 -8.04,7.09 -11.96,16.93 -11.96,29.63l-87.42 -0.32 -0.31 -1.9c-1.48,-28.26 10.79,-52.71 36.83,-73.34 26.03,-20.53 60.32,-30.8 102.66,-30.8 40.11,0 72.6,10.16 97.68,30.59 24.98,20.32 37.46,49.31 37.46,86.88l0 138.53c0,15.77 1.27,30.59 3.6,44.34 2.44,13.87 6.14,27.63 11.33,41.28l-90.49 0zm-82.87 -60.33c15.98,0 30.06,-3.91 42.55,-11.74 12.38,-7.83 20.74,-16.94 25.08,-27.31l0 -47.31 -50.59 0c-19.15,0 -33.76,4.77 -43.71,14.4 -9.84,9.63 -14.81,21.16 -14.81,34.82 0,11.11 3.7,20.11 11.11,26.88 7.51,6.88 17.57,10.26 30.37,10.26z"/>
    <path id="3" class="fil16" d="M6659.91 3533.93c16.19,0 29.11,-4.66 38.74,-13.97 9.73,-9.31 14.6,-21.8 14.6,-37.47l82.23 0 0.85 1.91c0.85,33.87 -11.85,62.23 -38.31,85.09 -26.35,22.86 -59.06,34.29 -98.11,34.29 -49.95,0 -88.58,-15.77 -115.66,-47.41 -26.99,-31.65 -40.54,-72.18 -40.54,-121.81l0 -9.21c0,-49.42 13.44,-90.06 40.43,-121.8 26.99,-31.86 65.51,-47.73 115.45,-47.73 41.39,0 74.72,11.75 100.02,35.35 25.29,23.6 37.57,54.61 36.72,93.03l-0.63 1.79 -82.45 0c0,-17.25 -4.76,-31.64 -14.29,-43.18 -9.41,-11.43 -22.54,-17.14 -39.37,-17.14 -23.91,0 -40.85,9.31 -50.69,27.83 -9.74,18.52 -14.71,42.44 -14.71,71.65l0 9.32c0,29.84 4.97,53.87 14.71,72.17 9.84,18.21 26.88,27.31 51.01,27.31z"/>
    <polygon id="4" class="fil16" points="6963.11,3457.74 6938.35,3457.74 6938.35,3597.43 6847.75,3597.43 6847.75,3113.58 6938.35,3113.58 6938.35,3387.89 6960.68,3387.89 7038.47,3262.16 7143.23,3262.16 7035.93,3414.03 7159.63,3597.43 7055.81,3597.43 "/>
    <path id="5" class="fil13 str7" d="M5804.72 3479.53c0,-17.25 -6.14,-31.22 -18.42,-41.7 -12.28,-10.47 -33.87,-20.42 -64.66,-29.63 -53.77,-15.56 -94.41,-33.97 -121.81,-55.25 -27.51,-21.27 -41.27,-50.48 -41.27,-87.41 0,-37.05 15.77,-67.31 47.31,-90.7 31.53,-23.5 71.75,-35.25 120.74,-35.25 49.64,0 90.07,13.23 121.17,39.59 31.22,26.35 46.36,58.84 45.3,97.47l-0.64 1.8 -87.73 0c0,-20.53 -6.99,-37.15 -20.96,-49.96 -13.86,-12.7 -33.44,-19.05 -58.74,-19.05 -24.13,0 -42.86,5.3 -56.09,15.99 -13.23,10.68 -19.89,24.23 -19.89,40.85 0,15.13 7.09,27.62 21.27,37.36 14.18,9.73 38.63,20 73.34,30.9 49.85,13.76 87.52,32.07 113.13,54.82 25.71,22.76 38.52,52.6 38.52,89.54 0,38.63 -15.24,69.11 -45.72,91.44 -30.59,22.33 -70.8,33.44 -120.85,33.44 -49.11,0 -92.08,-12.7 -128.58,-37.99 -36.62,-25.3 -54.4,-60.86 -53.34,-106.46l0.64 -1.91 88.05 0c0,26.88 8.15,46.57 24.55,59.06 16.51,12.49 39.37,18.73 68.69,18.73 24.66,0 43.5,-5.08 56.51,-15.13 13.02,-10.16 19.48,-23.61 19.48,-40.54z"/>
    <path id="6" class="fil13 str7" d="M6064 3180.04l0 82.13 56.41 0 0 63.5 -56.41 0 0 170.7c0,13.02 2.64,22.33 8.04,27.94 5.4,5.61 12.59,8.36 21.7,8.36 4.76,0 8.89,-0.21 12.27,-0.74 3.39,-0.53 7.41,-1.48 11.86,-2.65l7.83 65.2c-9.1,3.17 -17.99,5.5 -26.67,6.98 -8.68,1.59 -18.1,2.33 -28.26,2.33 -31.22,0 -55.25,-8.57 -72.07,-25.72 -16.83,-17.14 -25.3,-44.24 -25.3,-81.49l0 -170.91 -49 0 0 -63.5 49 0 0 -82.13 90.6 0z"/>
    <path id="7" class="fil13 str7" d="M6375.03 3597.43c-3.39,-7.62 -6.24,-15.66 -8.57,-24.24 -2.44,-8.46 -4.13,-17.14 -5.08,-26.03 -9.32,16.4 -21.59,29.84 -36.83,40.53 -15.14,10.69 -33.34,16.09 -54.4,16.09 -35.14,0 -62.23,-9 -81.18,-27.09 -19.05,-18.1 -28.57,-42.76 -28.57,-73.88 0,-32.91 12.7,-58.31 37.99,-76.41 25.3,-18.09 62.23,-27.09 110.8,-27.09l50.59 0 0 -26.67c0,-16.09 -4.23,-28.58 -12.7,-37.47 -8.47,-8.89 -20.96,-13.33 -37.57,-13.33 -14.61,0 -25.93,3.6 -33.87,10.69 -8.04,7.09 -11.96,16.93 -11.96,29.63l-87.42 -0.32 -0.31 -1.9c-1.48,-28.26 10.79,-52.71 36.83,-73.34 26.03,-20.53 60.32,-30.8 102.66,-30.8 40.11,0 72.6,10.16 97.68,30.59 24.98,20.32 37.46,49.31 37.46,86.88l0 138.53c0,15.77 1.27,30.59 3.6,44.34 2.44,13.87 6.14,27.63 11.33,41.28l-90.49 0zm-82.87 -60.33c15.98,0 30.06,-3.91 42.55,-11.74 12.38,-7.83 20.74,-16.94 25.08,-27.31l0 -47.31 -50.59 0c-19.15,0 -33.76,4.77 -43.71,14.4 -9.84,9.63 -14.81,21.16 -14.81,34.82 0,11.11 3.7,20.11 11.11,26.88 7.51,6.88 17.57,10.26 30.37,10.26z"/>
    <path id="8" class="fil13 str7" d="M6659.91 3533.93c16.19,0 29.11,-4.66 38.74,-13.97 9.73,-9.31 14.6,-21.8 14.6,-37.47l82.23 0 0.85 1.91c0.85,33.87 -11.85,62.23 -38.31,85.09 -26.35,22.86 -59.06,34.29 -98.11,34.29 -49.95,0 -88.58,-15.77 -115.66,-47.41 -26.99,-31.65 -40.54,-72.18 -40.54,-121.81l0 -9.21c0,-49.42 13.44,-90.06 40.43,-121.8 26.99,-31.86 65.51,-47.73 115.45,-47.73 41.39,0 74.72,11.75 100.02,35.35 25.29,23.6 37.57,54.61 36.72,93.03l-0.63 1.79 -82.45 0c0,-17.25 -4.76,-31.64 -14.29,-43.18 -9.41,-11.43 -22.54,-17.14 -39.37,-17.14 -23.91,0 -40.85,9.31 -50.69,27.83 -9.74,18.52 -14.71,42.44 -14.71,71.65l0 9.32c0,29.84 4.97,53.87 14.71,72.17 9.84,18.21 26.88,27.31 51.01,27.31z"/>
    <polygon id="9" class="fil13 str7" points="6963.11,3457.74 6938.35,3457.74 6938.35,3597.43 6847.75,3597.43 6847.75,3113.58 6938.35,3113.58 6938.35,3387.89 6960.68,3387.89 7038.47,3262.16 7143.23,3262.16 7035.93,3414.03 7159.63,3597.43 7055.81,3597.43 "/>
    <g>
     <polygon class="fil3" points="4518.99,3828.37 4518.99,3623.75 4808.74,3513.6 4518.99,3403.44 4518.99,3198.82 5083.85,3409.02 5085.2,3408.52 5085.2,3409.52 5085.2,3617.69 5085.2,3618.69 5083.85,3618.19 "/>
     <polygon class="fil3" points="1061.98,3403.36 1061.98,3198.74 496.91,3409.02 495.78,3408.59 495.78,3409.43 495.78,3617.76 495.78,3618.6 496.91,3618.18 1061.98,3828.45 1061.98,3623.83 772,3513.59 "/>
    </g>
    <path class="fil17 str8" d="M2097.93 3121.49c93.56,0 168.99,28.67 226.32,85.99 57.32,57.33 85.99,137.35 85.99,240.08l0 447.12 -192.61 0 0 -420.98c0,-59.62 -15.13,-105.24 -45.4,-136.89 -30.27,-31.64 -71.55,-47.47 -123.82,-47.47 -52.28,0 -93.78,15.83 -124.5,47.47 -30.73,31.65 -46.09,77.28 -46.09,136.89l0 420.98 -192.61 0 0 -420.98c0,-59.62 -15.13,-105.24 -45.4,-136.89 -30.27,-31.64 -71.54,-47.47 -123.81,-47.47 -53.2,0 -95.16,15.83 -125.88,47.47 -30.73,31.65 -46.09,77.28 -46.09,136.89l0 420.98 -192.61 0 0 -762.17 192.61 0 0 92.18c24.76,-32.1 56.64,-57.33 95.62,-75.67 38.98,-18.34 81.86,-27.52 128.63,-27.52 59.62,0 112.81,12.62 159.59,37.84 46.77,25.22 83,61.22 108.68,107.99 24.76,-44.03 60.76,-79.34 107.99,-105.93 47.24,-26.6 98.37,-39.9 153.39,-39.9zm1105.56 375.59c0,27.51 -1.83,52.28 -5.5,74.29l-557.18 0c4.59,55.03 23.85,98.14 57.79,129.32 33.93,31.18 75.67,46.78 125.19,46.78 71.54,0 122.43,-30.73 152.7,-92.18l207.74 0c-22.01,73.37 -64.2,133.67 -126.56,180.91 -62.37,47.23 -138.95,70.85 -229.76,70.85 -73.37,0 -139.18,-16.28 -197.42,-48.84 -58.24,-32.56 -103.64,-78.65 -136.2,-138.26 -32.56,-59.62 -48.84,-128.4 -48.84,-206.36 0,-78.89 16.05,-148.13 48.16,-207.75 32.1,-59.61 77.04,-105.47 134.82,-137.57 57.78,-32.1 124.27,-48.15 199.48,-48.15 72.46,0 137.35,15.59 194.67,46.78 57.33,31.18 101.81,75.44 133.45,132.75 31.64,57.33 47.46,123.13 47.46,197.43zm-199.48 -55.04c-0.92,-49.53 -18.8,-89.2 -53.66,-119 -34.85,-29.81 -77.5,-44.71 -127.94,-44.71 -47.7,0 -87.82,14.44 -120.38,43.34 -32.56,28.89 -52.51,69.02 -59.84,120.37l361.82 0zm434.19 -191.23c24.76,-40.36 57.1,-72 96.99,-94.93 39.9,-22.93 85.54,-34.4 136.89,-34.4l0 202.24 -50.91 0c-60.53,0 -106.15,14.22 -136.88,42.65 -30.73,28.44 -46.09,77.96 -46.09,148.58l0 379.71 -192.61 0 0 -762.17 192.61 0 0 118.31zm687.33 -129.32c90.81,0 164.17,28.67 220.12,85.99 55.96,57.33 83.93,137.35 83.93,240.08l0 447.12 -192.61 0 0 -420.98c0,-60.54 -15.13,-107.08 -45.4,-139.64 -30.27,-32.56 -71.54,-48.84 -123.81,-48.84 -53.2,0 -95.16,16.28 -125.88,48.84 -30.73,32.56 -46.09,79.11 -46.09,139.64l0 420.98 -192.61 0 0 -762.17 192.61 0 0 94.93c25.68,-33.02 58.47,-58.93 98.37,-77.73 39.9,-18.8 83.7,-28.21 131.38,-28.21z"/>
    <path class="fil12" d="M1463.81 5663.86c-21.82,0 -40.73,-5.55 -56.72,-16.65 -15.99,-11.1 -23.99,-29.45 -23.99,-55.04 0,-30.85 15.99,-51.92 47.98,-63.21 -9.03,-4.89 -16.47,-11.2 -22.3,-18.91 -5.83,-7.72 -8.75,-16.65 -8.75,-26.81 0,-14.68 5.18,-25.78 15.53,-33.3 10.34,-7.53 21.73,-12.8 34.14,-15.81 -12.41,-9.03 -22.2,-20.13 -29.35,-33.3 -7.15,-13.17 -10.72,-27.66 -10.72,-43.46 0,-31.61 10.72,-56.16 32.17,-73.66 21.45,-17.5 50.8,-26.25 88.05,-26.25 20.7,0 39.52,3.39 56.45,10.16 24.46,-11.66 38.76,-28.79 42.9,-51.36l47.41 0c0,17.68 -5.18,32.92 -15.52,45.72 -10.35,12.79 -24.37,21.26 -42.05,25.4 21.07,18.81 31.6,42.14 31.6,69.99 0,31.61 -10.81,56.16 -32.45,73.66 -21.64,17.49 -51.08,26.24 -88.34,26.24l-47.41 0c-10.16,0 -17.97,2.26 -23.42,6.78 -5.46,4.51 -8.19,10.34 -8.19,17.49 0,7.15 2.73,12.99 8.19,17.5 5.45,4.52 13.26,6.77 23.42,6.77l119.09 0c23.33,0 41.77,7.06 55.31,21.17 13.55,14.11 20.32,31.14 20.32,51.08 0,14.3 -3.2,28.04 -9.59,41.21 -6.4,13.17 -16.65,23.89 -30.76,32.17 -14.12,8.28 -31.9,12.42 -53.34,12.42l-119.66 0zm66.61 -244.96c23.33,0 41.01,-5.36 53.06,-16.09 12.04,-10.72 18.06,-25.87 18.06,-45.43 0,-19.57 -6.02,-34.72 -18.06,-45.44 -12.05,-10.72 -29.73,-16.09 -53.06,-16.09 -23.33,0 -41.02,5.37 -53.06,16.09 -12.04,10.72 -18.06,25.87 -18.06,45.44 0,19.56 6.02,34.71 18.06,45.43 12.04,10.73 29.73,16.09 53.06,16.09zm54.19 204.88c12.41,0 22.76,-3.38 31.04,-10.16 8.28,-6.77 12.42,-15.8 12.42,-27.09 0,-11.29 -3.3,-20.23 -9.88,-26.81 -6.59,-6.59 -15.33,-9.88 -26.25,-9.88l-123.6 0c-10.91,0 -19.57,3.29 -25.96,9.88 -6.4,6.58 -9.6,15.52 -9.6,26.81 0,11.29 3.2,20.32 9.6,27.09 6.39,6.78 15.05,10.16 25.96,10.16l116.27 0z"/>
    <path id="1" class="fil12" d="M1724.58 5153.06l49.67 0 0 55.31 -49.67 0 0 -55.31zm0 111.18l49.67 0 0 296.89 -49.67 0 0 -296.89z"/>
    <path id="2" class="fil12" d="M1917.05 5567.35c-20.32,0 -35.19,-6.02 -44.59,-18.06 -9.41,-12.04 -14.12,-26.91 -14.12,-44.59l0 -199.24 -36.12 0 0 -41.21 36.69 0 10.72 -82.4 38.38 0 0 82.4 50.24 0 0 41.21 -50.24 0 0 194.72c0,17.69 8.28,26.53 24.84,26.53l25.4 0 0 32.74c-4.89,2.25 -11.29,4.14 -19.19,5.64 -7.9,1.51 -15.24,2.26 -22.01,2.26z"/>
    <path id="3" class="fil12" d="M2006.78 5153.06l49.67 0 0 144.49 3.95 0c20.7,-26.72 51.93,-40.08 93.7,-40.08 61.71,0 92.56,33.68 92.56,101.04l0 202.62 -49.67 0 0 -199.24c0,-23.7 -5.26,-40.17 -15.8,-49.39 -10.54,-9.22 -25.78,-13.82 -45.72,-13.82 -14.3,0 -27.47,3.48 -39.51,10.44 -12.04,6.96 -21.64,17.02 -28.79,30.2 -7.15,13.17 -10.72,28.59 -10.72,46.28l0 175.53 -49.67 0 0 -408.07z"/>
    <path id="4" class="fil12" d="M2411.47 5567.91c-29.72,0 -52.58,-7.99 -68.58,-23.99 -15.99,-15.99 -23.99,-41.67 -23.99,-77.04l0 -202.63 49.67 0 0 199.24c0,23.71 5.27,40.17 15.81,49.39 10.54,9.22 25.78,13.83 45.72,13.83 14.3,0 27.47,-3.48 39.51,-10.44 12.04,-6.96 21.64,-17.03 28.79,-30.2 7.15,-13.17 10.72,-28.6 10.72,-46.28l0 -175.54 49.67 0 0 296.89 -37.82 0 -5.64 -40.08 -3.95 0c-21.83,31.24 -55.13,46.85 -99.91,46.85z"/>
    <path id="5" class="fil12" d="M2773.26 5567.91c-19.57,0 -37.35,-3.95 -53.34,-11.85 -15.99,-7.9 -28.88,-19.57 -38.66,-35l-3.39 0 -6.21 40.08 -37.25 0 0 -408.07 49.67 0 0 145.05 3.38 0c9.79,-14.3 22.02,-24.65 36.69,-31.04 14.68,-6.4 32.55,-9.6 53.63,-9.6 34.99,0 62.55,12.89 82.69,38.67 20.13,25.77 30.19,64.62 30.19,116.54 0,53.06 -10.16,92.19 -30.48,117.4 -20.32,25.21 -49.29,37.81 -86.92,37.81zm-12.42 -41.2c19.19,0 34.43,-3.58 45.72,-10.73 11.29,-7.14 19.57,-18.81 24.84,-34.99 5.27,-16.18 7.9,-38.19 7.9,-66.04l0 -2.26c0,-28.22 -2.63,-50.61 -7.9,-67.17 -5.27,-16.55 -13.64,-28.5 -25.12,-35.84 -11.48,-7.34 -26.62,-11 -45.44,-11 -26.34,0 -45.72,9.59 -58.14,28.78 -12.41,19.19 -18.62,47.6 -18.62,85.23l0 2.26c0,36.88 6.11,64.72 18.34,83.54 12.23,18.81 31.71,28.22 58.42,28.22z"/>
    <polygon id="6" class="fil12" points="2961.77,5500.18 3018.22,5500.18 3018.22,5561.14 2961.77,5561.14 "/>
    <path id="7" class="fil12" d="M3218.02 5567.91c-45.16,0 -78.27,-12.51 -99.35,-37.53 -21.07,-25.03 -31.6,-64.25 -31.6,-117.68 0,-53.06 10.63,-92.19 31.89,-117.39 21.26,-25.21 54.28,-37.82 99.06,-37.82 40.64,0 70.36,9.78 89.18,29.35 18.81,19.57 28.22,48.73 28.22,87.49l-50.8 0c0,-26.72 -4.8,-46 -14.39,-57.85 -9.6,-11.86 -27,-17.78 -52.21,-17.78 -27.47,0 -47.61,8.93 -60.4,26.81 -12.79,17.87 -19.19,46.94 -19.19,87.2l0 2.26c0,39.89 6.21,68.49 18.63,85.79 12.41,17.31 32.73,25.97 60.96,25.97 24.83,0 42.61,-6.3 53.34,-18.91 10.72,-12.61 16.08,-31.51 16.08,-56.73l47.98 0c0,33.87 -9.6,61.81 -28.79,83.82 -19.19,22.02 -48.73,33.02 -88.61,33.02z"/>
    <path id="8" class="fil12" d="M3506.42 5567.91c-45.53,0 -79.77,-12.7 -102.72,-38.1 -22.96,-25.4 -34.43,-64.44 -34.43,-117.11 0,-52.68 11.47,-91.72 34.43,-117.11 22.95,-25.4 57.19,-38.1 102.72,-38.1 45.54,0 79.78,12.7 102.73,38.1 22.96,25.4 34.43,64.44 34.43,117.11 0,52.68 -11.47,91.72 -34.43,117.11 -22.95,25.4 -57.19,38.1 -102.73,38.1zm0 -41.2c30.11,0 51.93,-8.75 65.48,-26.25 13.55,-17.49 20.32,-46 20.32,-85.51l0 -4.52c0,-39.51 -6.77,-68.01 -20.32,-85.51 -13.55,-17.5 -35.37,-26.24 -65.48,-26.24 -30.1,0 -51.92,8.74 -65.47,26.24 -13.55,17.5 -20.32,46 -20.32,85.51l0 4.52c0,39.51 6.77,68.02 20.32,85.51 13.55,17.5 35.37,26.25 65.47,26.25z"/>
    <path id="9" class="fil12" d="M3701.15 5264.25l37.81 0 5.65 40.08 3.95 0c20.32,-31.23 50.05,-46.85 89.18,-46.85 38.38,0 63.97,15.62 76.77,46.85l3.38 0c10.16,-15.05 23.43,-26.62 39.8,-34.71 16.36,-8.09 33.77,-12.14 52.21,-12.14 58.32,0 87.48,29.92 87.48,89.75l0 213.91 -49.67 0 0 -204.88c0,-21.45 -4.7,-36.41 -14.11,-44.87 -9.4,-8.47 -22.39,-12.7 -38.94,-12.7 -19.95,0 -36.69,7.9 -50.24,23.7 -13.55,15.81 -20.32,36.88 -20.32,63.22l0 175.53 -49.67 0 0 -204.88c0,-21.45 -4.51,-36.41 -13.55,-44.87 -9.03,-8.47 -21.82,-12.7 -38.38,-12.7 -12.79,0 -24.65,3.48 -35.56,10.44 -10.91,6.96 -19.66,17.02 -26.24,30.2 -6.59,13.17 -9.88,28.59 -9.88,46.28l0 175.53 -49.67 0 0 -296.89z"/>
    <polygon id="10" class="fil12" points="4250.33,5146.3 4289.84,5146.3 4174.13,5588.79 4134.05,5588.79 "/>
    <path id="11" class="fil12" d="M4408.92 5567.91c-25.59,0 -48.35,-6.02 -68.29,-18.06 -19.95,-12.04 -29.92,-33.87 -29.92,-65.47 0,-38.01 16.93,-64.07 50.8,-78.18 33.87,-14.11 82.78,-21.17 146.74,-21.17l0 -32.73c0,-17.31 -4.89,-30.58 -14.67,-39.8 -9.79,-9.22 -27.47,-13.82 -53.06,-13.82 -24.08,0 -41.3,4.51 -51.65,13.54 -10.34,9.03 -15.52,20.13 -15.52,33.3l0 6.78 -47.97 0c-0.38,-2.26 -0.57,-6.4 -0.57,-12.42 0,-26.34 10.91,-46.66 32.74,-60.96 21.82,-14.3 50.99,-21.45 87.49,-21.45 36.87,0 64.91,7.72 84.1,23.14 19.19,15.43 28.78,37.26 28.78,65.48l0 160.85c0,6.78 1.89,11.76 5.65,14.96 3.76,3.2 8.47,4.8 14.11,4.8l22.58 0 0 32.17c-9.79,4.52 -22.58,6.78 -38.38,6.78 -12.8,0 -23.52,-3.86 -32.18,-11.58 -8.65,-7.71 -14.48,-17.96 -17.5,-30.76l-3.95 0c-10.16,13.93 -23.98,24.84 -41.48,32.74 -17.5,7.9 -36.79,11.85 -57.86,11.85zm12.98 -41.2c14.68,0 28.6,-3.01 41.77,-9.03 13.17,-6.02 23.9,-14.96 32.18,-26.81 8.27,-11.86 12.41,-26.25 12.41,-43.18l0 -21.45c-48.54,0 -84.94,3.86 -109.21,11.57 -24.27,7.71 -36.4,22.3 -36.4,43.74 0,16.18 4.98,27.76 14.96,34.72 9.97,6.96 24.74,10.44 44.3,10.44z"/>
    <path id="12" class="fil12" d="M4695.08 5663.86c-21.82,0 -40.73,-5.55 -56.72,-16.65 -15.99,-11.1 -23.99,-29.45 -23.99,-55.04 0,-30.85 15.99,-51.92 47.98,-63.21 -9.03,-4.89 -16.47,-11.2 -22.3,-18.91 -5.83,-7.72 -8.75,-16.65 -8.75,-26.81 0,-14.68 5.18,-25.78 15.53,-33.3 10.34,-7.53 21.73,-12.8 34.14,-15.81 -12.41,-9.03 -22.2,-20.13 -29.35,-33.3 -7.15,-13.17 -10.72,-27.66 -10.72,-43.46 0,-31.61 10.72,-56.16 32.17,-73.66 21.45,-17.5 50.8,-26.25 88.05,-26.25 20.7,0 39.52,3.39 56.45,10.16 24.46,-11.66 38.76,-28.79 42.9,-51.36l47.41 0c0,17.68 -5.18,32.92 -15.52,45.72 -10.35,12.79 -24.37,21.26 -42.05,25.4 21.07,18.81 31.6,42.14 31.6,69.99 0,31.61 -10.81,56.16 -32.45,73.66 -21.64,17.49 -51.08,26.24 -88.34,26.24l-47.41 0c-10.16,0 -17.97,2.26 -23.42,6.78 -5.46,4.51 -8.19,10.34 -8.19,17.49 0,7.15 2.73,12.99 8.19,17.5 5.45,4.52 13.26,6.77 23.42,6.77l119.09 0c23.33,0 41.77,7.06 55.31,21.17 13.55,14.11 20.32,31.14 20.32,51.08 0,14.3 -3.2,28.04 -9.59,41.21 -6.4,13.17 -16.65,23.89 -30.76,32.17 -14.12,8.28 -31.9,12.42 -53.34,12.42l-119.66 0zm66.61 -244.96c23.33,0 41.01,-5.36 53.06,-16.09 12.04,-10.72 18.06,-25.87 18.06,-45.43 0,-19.57 -6.02,-34.72 -18.06,-45.44 -12.05,-10.72 -29.73,-16.09 -53.06,-16.09 -23.33,0 -41.02,5.37 -53.06,16.09 -12.04,10.72 -18.06,25.87 -18.06,45.44 0,19.56 6.02,34.71 18.06,45.43 12.04,10.73 29.73,16.09 53.06,16.09zm54.19 204.88c12.41,0 22.76,-3.38 31.04,-10.16 8.28,-6.77 12.42,-15.8 12.42,-27.09 0,-11.29 -3.3,-20.23 -9.88,-26.81 -6.59,-6.59 -15.33,-9.88 -26.25,-9.88l-123.6 0c-10.91,0 -19.57,3.29 -25.96,9.88 -6.4,6.58 -9.6,15.52 -9.6,26.81 0,11.29 3.2,20.32 9.6,27.09 6.39,6.78 15.05,10.16 25.96,10.16l116.27 0z"/>
    <path id="13" class="fil12" d="M4966.56 5305.46l-43.46 0 0 -41.21 43.46 0 0 -47.41c0,-19.57 4.89,-35.84 14.68,-48.82 9.78,-12.98 26.34,-19.48 49.67,-19.48 7.52,0 15.14,0.66 22.86,1.98 7.71,1.32 14.2,2.92 19.47,4.8l0 34.43 -29.35 0c-18.44,0 -27.66,9.03 -27.66,27.09l0 47.41 57.01 0 0 41.21 -57.01 0 0 255.68 -49.67 0 0 -255.68z"/>
    <path id="14" class="fil12" d="M5179.91 5567.35c-20.32,0 -35.19,-6.02 -44.59,-18.06 -9.41,-12.04 -14.12,-26.91 -14.12,-44.59l0 -199.24 -36.12 0 0 -41.21 36.69 0 10.72 -82.4 38.38 0 0 82.4 50.24 0 0 41.21 -50.24 0 0 194.72c0,17.69 8.28,26.53 24.84,26.53l25.4 0 0 32.74c-4.89,2.25 -11.29,4.14 -19.19,5.64 -7.9,1.51 -15.24,2.26 -22.01,2.26z"/>
    <path id="15" class="fil12" d="M5395.51 5567.91c-47.79,0 -83.35,-12.6 -106.67,-37.81 -23.33,-25.22 -35,-64.35 -35,-117.4 0,-53.06 11.67,-92.19 35,-117.39 23.33,-25.21 58.89,-37.82 106.67,-37.82 42.9,0 74.97,11.38 96.23,34.15 21.27,22.77 31.9,59.36 31.9,109.77l0 24.84 -218.43 0c1.88,34.24 10.06,59.55 24.55,75.92 14.49,16.36 36.41,24.55 65.76,24.55 23.7,0 42.9,-5.46 57.57,-16.37 14.68,-10.91 22.01,-27.66 22.01,-50.23l48.55 0c0,34.61 -11.95,61.24 -35.85,79.86 -23.89,18.63 -54.65,27.94 -92.28,27.94zm76.2 -182.87c0,-57.57 -25.4,-86.35 -76.2,-86.35 -28.22,0 -49.39,6.77 -63.5,20.32 -14.11,13.54 -22.67,35.55 -25.68,66.03l165.37 0z"/>
    <path id="16" class="fil12" d="M5696.35 5567.91c-45.16,0 -78.27,-12.51 -99.35,-37.53 -21.07,-25.03 -31.6,-64.25 -31.6,-117.68 0,-53.06 10.63,-92.19 31.89,-117.39 21.26,-25.21 54.28,-37.82 99.06,-37.82 40.64,0 70.36,9.78 89.18,29.35 18.81,19.57 28.22,48.73 28.22,87.49l-50.8 0c0,-26.72 -4.8,-46 -14.39,-57.85 -9.6,-11.86 -27,-17.78 -52.21,-17.78 -27.47,0 -47.61,8.93 -60.4,26.81 -12.79,17.87 -19.19,46.94 -19.19,87.2l0 2.26c0,39.89 6.21,68.49 18.63,85.79 12.41,17.31 32.73,25.97 60.96,25.97 24.83,0 42.61,-6.3 53.34,-18.91 10.72,-12.61 16.08,-31.51 16.08,-56.73l47.98 0c0,33.87 -9.6,61.81 -28.79,83.82 -19.19,22.02 -48.73,33.02 -88.61,33.02z"/>
    <path id="17" class="fil12" d="M5865.67 5153.06l49.67 0 0 144.49 3.95 0c20.7,-26.72 51.93,-40.08 93.7,-40.08 61.71,0 92.56,33.68 92.56,101.04l0 202.62 -49.67 0 0 -199.24c0,-23.7 -5.26,-40.17 -15.8,-49.39 -10.54,-9.22 -25.78,-13.82 -45.72,-13.82 -14.3,0 -27.47,3.48 -39.51,10.44 -12.04,6.96 -21.64,17.02 -28.79,30.2 -7.15,13.17 -10.72,28.59 -10.72,46.28l0 175.53 -49.67 0 0 -408.07z"/>
    <g>
     <path class="fil17" d="M1417.22 1232.55c18.41,-27.28 43.82,-49.45 76.22,-66.5 32.39,-17.05 69.4,-25.57 110.99,-25.57 48.42,0 92.25,11.93 131.45,35.8 39.22,23.88 70.25,57.81 93.1,101.8 22.85,43.99 34.27,94.97 34.27,152.94 0,57.97 -11.42,109.28 -34.27,153.96 -22.85,44.67 -53.88,79.28 -93.1,103.84 -39.21,24.55 -83.04,36.83 -131.45,36.83 -42.29,0 -79.29,-8.36 -110.99,-25.07 -31.72,-16.71 -57.12,-38.36 -76.22,-64.96l0 80.82 -143.22 0 0 -757.02 143.22 0 0 273.14zm299.75 198.47c0,-34.11 -6.99,-63.6 -20.98,-88.5 -13.98,-24.89 -32.39,-43.82 -55.24,-56.78 -22.85,-12.96 -47.57,-19.44 -74.17,-19.44 -25.92,0 -50.3,6.65 -73.15,19.95 -22.85,13.3 -41.27,32.57 -55.25,57.81 -13.98,25.23 -20.97,54.9 -20.97,89 0,34.1 6.99,63.77 20.97,89.01 13.98,25.23 32.4,44.5 55.25,57.8 22.85,13.3 47.23,19.95 73.15,19.95 26.6,0 51.32,-6.82 74.17,-20.46 22.85,-13.64 41.26,-33.08 55.24,-58.31 13.99,-25.24 20.98,-55.25 20.98,-90.03z"/>
     <path id="1" class="fil17" d="M2158.39 1725.65c-54.56,0 -103.67,-12.11 -147.31,-36.32 -43.65,-24.21 -77.92,-58.49 -102.81,-102.82 -24.9,-44.33 -37.35,-95.48 -37.35,-153.45 0,-57.97 12.79,-109.11 38.37,-153.45 25.58,-44.33 60.53,-78.6 104.86,-102.81 44.34,-24.22 93.78,-36.32 148.34,-36.32 54.56,0 104.01,12.1 148.33,36.32 44.33,24.21 79.29,58.48 104.86,102.81 25.58,44.34 38.37,95.49 38.37,153.45 0,57.98 -13.13,109.12 -39.39,153.45 -26.26,44.33 -61.72,78.61 -106.39,102.82 -44.67,24.21 -94.63,36.32 -149.87,36.32zm0 -124.81c25.92,0 50.3,-6.3 73.15,-18.92 22.85,-12.62 41.1,-31.55 54.74,-56.78 13.64,-25.24 20.46,-55.93 20.46,-92.08 0,-53.88 -14.15,-95.31 -42.46,-124.29 -28.3,-28.99 -62.92,-43.48 -103.84,-43.48 -40.92,0 -75.19,14.49 -102.82,43.48 -27.62,28.99 -41.43,70.42 -41.43,124.29 0,53.88 13.47,95.32 40.41,124.29 26.94,28.99 60.87,43.48 101.79,43.48z"/>
     <path id="2" class="fil17" d="M2750.2 1725.65c-54.56,0 -103.67,-12.11 -147.31,-36.32 -43.65,-24.21 -77.92,-58.49 -102.81,-102.82 -24.9,-44.33 -37.35,-95.48 -37.35,-153.45 0,-57.97 12.79,-109.11 38.37,-153.45 25.58,-44.33 60.53,-78.6 104.86,-102.81 44.34,-24.22 93.78,-36.32 148.34,-36.32 54.56,0 104.01,12.1 148.33,36.32 44.33,24.21 79.29,58.48 104.86,102.81 25.58,44.34 38.37,95.49 38.37,153.45 0,57.98 -13.13,109.12 -39.39,153.45 -26.26,44.33 -61.72,78.61 -106.39,102.82 -44.67,24.21 -94.63,36.32 -149.87,36.32zm0 -124.81c25.92,0 50.3,-6.3 73.15,-18.92 22.85,-12.62 41.1,-31.55 54.74,-56.78 13.64,-25.24 20.46,-55.93 20.46,-92.08 0,-53.88 -14.15,-95.31 -42.46,-124.29 -28.3,-28.99 -62.92,-43.48 -103.84,-43.48 -40.92,0 -75.19,14.49 -102.82,43.48 -27.62,28.99 -41.43,70.42 -41.43,124.29 0,53.88 13.47,95.32 40.41,124.29 26.94,28.99 60.87,43.48 101.79,43.48z"/>
     <path id="3" class="fil17" d="M3257.11 1267.34l0 274.17c0,19.09 4.6,32.91 13.81,41.43 9.21,8.53 24.73,12.79 46.55,12.79l66.5 0 0 120.71 -90.03 0c-120.71,0 -181.07,-58.66 -181.07,-175.96l0 -273.14 -67.52 0 0 -117.65 67.52 0 0 -140.14 144.24 0 0 140.14 126.85 0 0 117.65 -126.85 0z"/>
     <path id="4" class="fil17" d="M3389.59 1433.06c0,-58.65 11.94,-109.97 35.81,-153.96 23.87,-43.99 56.95,-78.09 99.23,-102.3 42.29,-24.22 90.72,-36.32 145.27,-36.32 70.25,0 128.38,17.56 174.42,52.68 46.04,35.13 76.9,84.41 92.59,147.83l-154.47 0c-8.19,-24.56 -22,-43.82 -41.44,-57.81 -19.44,-13.98 -43.48,-20.97 -72.12,-20.97 -40.93,0 -73.32,14.84 -97.19,44.5 -23.88,29.67 -35.81,71.79 -35.81,126.34 0,53.88 11.93,95.66 35.81,125.32 23.87,29.67 56.26,44.5 97.19,44.5 57.97,0 95.82,-25.92 113.55,-77.75l154.47 0c-15.69,61.38 -46.72,110.14 -93.1,146.29 -46.38,36.14 -104.35,54.22 -173.91,54.22 -54.56,0 -102.99,-12.11 -145.27,-36.32 -42.28,-24.21 -75.36,-58.32 -99.23,-102.31 -23.87,-43.99 -35.81,-95.31 -35.81,-153.96z"/>
     <path id="5" class="fil17" d="M3944.57 1431.02c0,-57.3 11.43,-108.1 34.27,-152.43 22.85,-44.33 53.88,-78.43 93.1,-102.31 39.22,-23.87 83.04,-35.8 131.46,-35.8 42.28,0 79.28,8.52 110.99,25.57 31.71,17.05 57.12,38.54 76.22,64.46l0 -80.83 144.24 0 0 566.75 -144.24 0 0 -82.87c-18.42,26.6 -43.83,48.6 -76.22,65.99 -32.4,17.39 -69.74,26.09 -112.02,26.09 -47.74,0 -91.22,-12.28 -130.43,-36.83 -39.22,-24.56 -70.25,-59.17 -93.1,-103.84 -22.84,-44.68 -34.27,-96 -34.27,-153.96zm446.04 2.04c0,-34.78 -6.83,-64.62 -20.47,-89.52 -13.64,-24.89 -32.05,-43.99 -55.24,-57.29 -23.19,-13.3 -48.09,-19.95 -74.68,-19.95 -26.6,0 -51.16,6.48 -73.67,19.44 -22.5,12.96 -40.75,31.89 -54.73,56.78 -13.98,24.9 -20.97,54.39 -20.97,88.5 0,34.1 6.99,63.94 20.97,89.51 13.98,25.58 32.4,45.19 55.25,58.83 22.84,13.64 47.23,20.46 73.15,20.46 26.59,0 51.49,-6.65 74.68,-19.95 23.19,-13.3 41.6,-32.4 55.24,-57.29 13.64,-24.89 20.47,-54.73 20.47,-89.52z"/>
     <path id="6" class="fil17" d="M5317.97 1141.51c69.56,0 125.65,21.31 168.28,63.94 42.63,42.63 63.94,102.14 63.94,178.52l0 332.47 -143.22 0 0 -313.05c0,-44.33 -11.25,-78.26 -33.76,-101.79 -22.51,-23.53 -53.2,-35.3 -92.07,-35.3 -38.88,0 -69.74,11.77 -92.59,35.3 -22.85,23.53 -34.27,57.46 -34.27,101.79l0 313.05 -143.22 0 0 -313.05c0,-44.33 -11.26,-78.26 -33.76,-101.79 -22.51,-23.53 -53.2,-35.3 -92.08,-35.3 -39.56,0 -70.76,11.77 -93.61,35.3 -22.85,23.53 -34.27,57.46 -34.27,101.79l0 313.05 -143.22 0 0 -566.75 143.22 0 0 68.55c18.41,-23.87 42.12,-42.63 71.1,-56.27 28.99,-13.64 60.87,-20.46 95.66,-20.46 44.33,0 83.89,9.38 118.66,28.13 34.79,18.76 61.73,45.53 80.83,80.31 18.41,-32.73 45.18,-58.99 80.31,-78.77 35.12,-19.78 73.14,-29.67 114.06,-29.67z"/>
     <path id="7" class="fil17" d="M5768.61 1231.53c18.41,-25.92 43.82,-47.57 76.22,-64.96 32.39,-17.4 69.4,-26.09 110.99,-26.09 48.42,0 92.25,11.93 131.45,35.8 39.22,23.88 70.25,57.81 93.1,101.8 22.85,43.99 34.27,94.97 34.27,152.94 0,57.97 -11.42,109.28 -34.27,153.96 -22.85,44.67 -53.88,79.28 -93.1,103.84 -39.21,24.55 -83.04,36.83 -131.45,36.83 -41.6,0 -78.26,-8.53 -109.97,-25.58 -31.71,-17.05 -57.46,-38.53 -77.24,-64.45l0 350.89 -143.22 0 0 -836.83 143.22 0 0 81.85zm299.75 199.49c0,-34.11 -6.99,-63.6 -20.98,-88.5 -13.98,-24.89 -32.39,-43.82 -55.24,-56.78 -22.85,-12.96 -47.57,-19.44 -74.17,-19.44 -25.92,0 -50.3,6.65 -73.15,19.95 -22.85,13.3 -41.27,32.57 -55.25,57.81 -13.98,25.23 -20.97,54.9 -20.97,89 0,34.1 6.99,63.77 20.97,89.01 13.98,25.23 32.4,44.5 55.25,57.8 22.85,13.3 47.23,19.95 73.15,19.95 26.6,0 51.32,-6.82 74.17,-20.46 22.85,-13.64 41.26,-33.08 55.24,-58.31 13.99,-25.24 20.98,-55.25 20.98,-90.03z"/>
     <path class="fil18" d="M3546.61 1842.07l-27.16 0 0 -25.75 27.16 0 0 -29.64c0,-12.23 3.06,-22.4 9.17,-30.51 6.12,-8.12 16.46,-12.17 31.05,-12.17 4.7,0 9.46,0.41 14.28,1.23 4.82,0.83 8.88,1.83 12.17,3l0 21.52 -18.34 0c-11.52,0 -17.29,5.65 -17.29,16.93l0 29.64 35.63 0 0 25.75 -35.63 0 0 159.8 -31.04 0 0 -159.8z"/>
     <path id="1" class="fil18" d="M3712.4 2006.1c-28.45,0 -49.86,-7.93 -64.2,-23.81 -14.35,-15.87 -21.52,-40.28 -21.52,-73.2 0,-32.93 7.17,-57.33 21.52,-73.2 14.34,-15.88 35.75,-23.82 64.2,-23.82 28.46,0 49.86,7.94 64.21,23.82 14.35,15.87 21.52,40.27 21.52,73.2 0,32.92 -7.17,57.33 -21.52,73.2 -14.35,15.88 -35.75,23.81 -64.21,23.81zm0 -25.75c18.82,0 32.46,-5.47 40.93,-16.4 8.46,-10.94 12.7,-28.76 12.7,-53.45l0 -2.82c0,-24.7 -4.24,-42.51 -12.7,-53.45 -8.47,-10.93 -22.11,-16.4 -40.93,-16.4 -18.81,0 -32.45,5.47 -40.92,16.4 -8.47,10.94 -12.7,28.75 -12.7,53.45l0 2.82c0,24.69 4.23,42.51 12.7,53.45 8.47,10.93 22.11,16.4 40.92,16.4z"/>
     <path id="2" class="fil18" d="M3834.12 1816.32l23.63 0 3.53 27.87 2.12 0c3.52,-9.17 8.82,-16.82 15.87,-22.93 7.06,-6.12 16.35,-9.18 27.87,-9.18 4,0 7.59,0.42 10.76,1.24 3.18,0.82 5.12,1.35 5.82,1.59l0 29.98 -13.05 0c-13.17,0 -24.05,3.82 -32.63,11.47 -8.59,7.64 -12.88,19.58 -12.88,35.81l0 109.7 -31.04 0 0 -185.55z"/>
     <path id="3" class="fil18" d="M4136.43 2006.1c-12.23,0 -23.34,-2.47 -33.34,-7.41 -9.99,-4.93 -18.05,-12.22 -24.16,-21.87l-2.12 0 -3.88 25.05 -23.28 0 0 -255.05 31.04 0 0 90.66 2.12 0c6.11,-8.93 13.76,-15.4 22.93,-19.4 9.17,-4 20.34,-6 33.51,-6 21.87,0 39.1,8.06 51.68,24.17 12.59,16.11 18.88,40.39 18.88,72.85 0,33.16 -6.35,57.62 -19.05,73.38 -12.7,15.75 -30.81,23.63 -54.33,23.63zm-7.76 -25.75c11.99,0 21.52,-2.23 28.57,-6.7 7.06,-4.47 12.23,-11.76 15.53,-21.87 3.29,-10.12 4.94,-23.88 4.94,-41.28l0 -1.41c0,-17.64 -1.65,-31.63 -4.94,-41.98 -3.3,-10.35 -8.53,-17.82 -15.7,-22.4 -7.18,-4.59 -16.64,-6.88 -28.4,-6.88 -16.46,0 -28.58,5.99 -36.34,17.99 -7.76,11.99 -11.64,29.75 -11.64,53.27l0 1.41c0,23.05 3.82,40.45 11.47,52.21 7.64,11.76 19.81,17.64 36.51,17.64z"/>
     <path id="4" class="fil18" d="M4324.46 2006.1c-29.87,0 -52.1,-7.88 -66.68,-23.63 -14.58,-15.76 -21.87,-40.22 -21.87,-73.38 0,-33.16 7.29,-57.62 21.87,-73.38 14.58,-15.76 36.81,-23.64 66.68,-23.64 26.81,0 46.86,7.12 60.15,21.35 13.28,14.23 19.93,37.1 19.93,68.61l0 15.53 -136.52 0c1.18,21.4 6.29,37.21 15.35,47.44 9.05,10.24 22.75,15.35 41.1,15.35 14.81,0 26.81,-3.41 35.98,-10.23 9.17,-6.82 13.76,-17.29 13.76,-31.4l30.34 0c0,21.64 -7.47,38.28 -22.4,49.92 -14.94,11.64 -34.17,17.46 -57.68,17.46zm47.62 -114.29c0,-35.98 -15.87,-53.97 -47.62,-53.97 -17.64,0 -30.87,4.23 -39.69,12.7 -8.82,8.46 -14.17,22.22 -16.05,41.27l103.36 0z"/>
     <path id="5" class="fil18" d="M4475.1 2066.08c-13.64,0 -25.46,-3.47 -35.46,-10.41 -9.99,-6.94 -14.99,-18.4 -14.99,-34.4 0,-19.28 10,-32.45 29.99,-39.51 -5.65,-3.06 -10.29,-7 -13.94,-11.82 -3.64,-4.82 -5.47,-10.4 -5.47,-16.75 0,-9.18 3.24,-16.11 9.7,-20.82 6.47,-4.7 13.59,-7.99 21.35,-9.88 -7.76,-5.64 -13.88,-12.58 -18.35,-20.81 -4.47,-8.23 -6.7,-17.29 -6.7,-27.16 0,-19.76 6.7,-35.11 20.11,-46.04 13.4,-10.94 31.75,-16.41 55.03,-16.41 12.94,0 24.7,2.12 35.28,6.35 15.29,-7.29 24.23,-17.99 26.81,-32.1l29.64 0c0,11.06 -3.24,20.58 -9.71,28.58 -6.46,7.99 -15.22,13.28 -26.28,15.87 13.17,11.76 19.76,26.34 19.76,43.75 0,19.75 -6.76,35.1 -20.29,46.03 -13.52,10.94 -31.92,16.41 -55.21,16.41l-29.63 0c-6.35,0 -11.23,1.41 -14.64,4.23 -3.41,2.82 -5.12,6.47 -5.12,10.94 0,4.47 1.71,8.11 5.12,10.93 3.41,2.83 8.29,4.24 14.64,4.24l74.44 0c14.58,0 26.1,4.41 34.57,13.23 8.47,8.82 12.7,19.46 12.7,31.92 0,8.94 -2,17.52 -6,25.76 -4,8.23 -10.41,14.93 -19.23,20.1 -8.81,5.18 -19.93,7.77 -33.33,7.77l-74.79 0zm41.63 -153.1c14.58,0 25.63,-3.35 33.16,-10.05 7.52,-6.71 11.29,-16.17 11.29,-28.4 0,-12.23 -3.77,-21.7 -11.29,-28.4 -7.53,-6.71 -18.58,-10.06 -33.16,-10.06 -14.59,0 -25.64,3.35 -33.17,10.06 -7.52,6.7 -11.28,16.17 -11.28,28.4 0,12.23 3.76,21.69 11.28,28.4 7.53,6.7 18.58,10.05 33.17,10.05zm33.86 128.05c7.76,0 14.23,-2.12 19.41,-6.35 5.17,-4.23 7.76,-9.88 7.76,-16.93 0,-7.06 -2.06,-12.65 -6.18,-16.76 -4.11,-4.12 -9.58,-6.18 -16.4,-6.18l-77.26 0c-6.82,0 -12.23,2.06 -16.23,6.18 -4,4.11 -6,9.7 -6,16.76 0,7.05 2,12.7 6,16.93 4,4.23 9.41,6.35 16.23,6.35l72.67 0z"/>
     <path id="6" class="fil18" d="M4638.08 1746.83l31.04 0 0 34.57 -31.04 0 0 -34.57zm0 69.5l31.04 0 0 185.55 -31.04 0 0 -185.55z"/>
     <path id="7" class="fil18" d="M4716.4 1816.32l23.63 0 3.53 25.05 2.47 0c13.64,-19.53 34.45,-29.29 62.44,-29.29 18.58,0 32.87,5 42.86,15 10,9.99 15,26.04 15,48.15l0 126.64 -31.05 0 0 -124.52c0,-14.82 -3.29,-25.11 -9.87,-30.87 -6.59,-5.76 -16.12,-8.64 -28.58,-8.64 -8.94,0 -17.17,2.17 -24.69,6.52 -7.53,4.35 -13.53,10.65 -18,18.88 -4.46,8.23 -6.7,17.87 -6.7,28.93l0 109.7 -31.04 0 0 -185.55z"/>
     <path id="8" class="fil18" d="M4912.54 1816.32l23.63 0 3.53 25.05 2.47 0c13.64,-19.53 34.45,-29.29 62.44,-29.29 18.58,0 32.87,5 42.86,15 10,9.99 15,26.04 15,48.15l0 126.64 -31.05 0 0 -124.52c0,-14.82 -3.29,-25.11 -9.87,-30.87 -6.59,-5.76 -16.12,-8.64 -28.58,-8.64 -8.94,0 -17.17,2.17 -24.69,6.52 -7.53,4.35 -13.53,10.65 -18,18.88 -4.46,8.23 -6.7,17.87 -6.7,28.93l0 109.7 -31.04 0 0 -185.55z"/>
     <path id="9" class="fil18" d="M5187.34 2006.1c-29.87,0 -52.1,-7.88 -66.68,-23.63 -14.58,-15.76 -21.87,-40.22 -21.87,-73.38 0,-33.16 7.29,-57.62 21.87,-73.38 14.58,-15.76 36.81,-23.64 66.68,-23.64 26.81,0 46.86,7.12 60.15,21.35 13.28,14.23 19.93,37.1 19.93,68.61l0 15.53 -136.52 0c1.18,21.4 6.29,37.21 15.35,47.44 9.05,10.24 22.75,15.35 41.1,15.35 14.81,0 26.81,-3.41 35.98,-10.23 9.17,-6.82 13.76,-17.29 13.76,-31.4l30.34 0c0,21.64 -7.47,38.28 -22.4,49.92 -14.94,11.64 -34.17,17.46 -57.68,17.46zm47.62 -114.29c0,-35.98 -15.87,-53.97 -47.62,-53.97 -17.64,0 -30.87,4.23 -39.69,12.7 -8.82,8.46 -14.17,22.22 -16.05,41.27l103.36 0z"/>
     <path id="10" class="fil18" d="M5304.82 1816.32l23.63 0 3.53 27.87 2.12 0c3.52,-9.17 8.82,-16.82 15.87,-22.93 7.06,-6.12 16.35,-9.18 27.87,-9.18 4,0 7.59,0.42 10.76,1.24 3.18,0.82 5.12,1.35 5.82,1.59l0 29.98 -13.05 0c-13.17,0 -24.05,3.82 -32.63,11.47 -8.59,7.64 -12.88,19.58 -12.88,35.81l0 109.7 -31.04 0 0 -185.55z"/>
     <path id="11" class="fil18" d="M5485.79 2006.1c-17.17,0 -31.46,-2.52 -42.87,-7.58 -11.4,-5.06 -19.81,-11.7 -25.22,-19.93 -5.41,-8.24 -8.11,-17.17 -8.11,-26.81 0,-2.83 0.05,-4.77 0.17,-5.83 0.12,-1.05 0.18,-1.7 0.18,-1.94l30.69 0 0 3.53c0,11.06 4.35,19.35 13.05,24.87 8.71,5.53 19.99,8.29 33.87,8.29 12,0 21.93,-2.41 29.81,-7.23 7.88,-4.82 11.82,-11.58 11.82,-20.28 0,-6.82 -2.24,-12.41 -6.7,-16.76 -4.47,-4.35 -10,-7.76 -16.58,-10.23 -6.59,-2.47 -15.53,-5.12 -26.82,-7.94 -13.64,-3.53 -24.75,-7.05 -33.33,-10.58 -8.59,-3.53 -15.88,-8.76 -21.88,-15.7 -5.99,-6.94 -8.99,-15.93 -8.99,-26.99 0,-16.23 6.64,-29.1 19.93,-38.63 13.29,-9.52 31.22,-14.29 53.8,-14.29 14.11,0 26.34,2.3 36.69,6.88 10.35,4.59 18.17,10.7 23.46,18.35 5.29,7.64 7.94,16.17 7.94,25.57l-0.36 6.71 -30.34 0 0 -3.18c0,-8.23 -3.23,-15.05 -9.7,-20.46 -6.47,-5.41 -16.87,-8.11 -31.22,-8.11 -14.11,0 -23.99,2.53 -29.63,7.58 -5.65,5.06 -8.47,10.88 -8.47,17.46 0,5.41 2,9.88 6,13.41 4,3.53 8.94,6.35 14.81,8.47 5.88,2.11 14.12,4.47 24.7,7.05 14.58,3.77 26.46,7.47 35.63,11.12 9.17,3.64 16.99,9.17 23.46,16.58 6.47,7.4 9.7,17.22 9.7,29.45 0,19.05 -6.88,33.34 -20.64,42.87 -13.75,9.52 -32.04,14.28 -54.85,14.28z"/>
    </g>
   </g>
   <g>
    <path class="fil4" d="M16382.46 2336.63l5083.08 0c280.69,0.01 508.32,224.26 508.32,500.8l-0.01 1053.32c0.01,276.52 -227.62,500.77 -508.3,500.77l-5083.09 0.02c-280.67,-0.02 -508.3,-224.27 -508.3,-500.8l-0.01 -1053.33c0.01,-276.52 227.64,-500.77 508.32,-500.77l-0.01 -0.01z"/>
    <path class="fil3" d="M14946.11 2336.61l1432.69 0c224.51,0 406.57,175.67 406.57,392.3l-0.01 1270.34c0.01,216.62 -182.05,392.29 -406.55,392.29l-1432.7 0.01c-224.49,-0.01 -406.55,-175.68 -406.55,-392.31l-0.02 -1270.33c0.02,-216.63 182.08,-392.3 406.58,-392.3z"/>
    <polygon class="fil3" points="17388.93,3403.36 17388.93,3198.74 16823.86,3409.02 16822.73,3408.59 16822.73,3409.43 16822.73,3617.76 16822.73,3618.6 16823.86,3618.18 17388.93,3828.45 17388.93,3623.83 17098.96,3513.59 "/>
    <path class="fil17 str8" d="M18424.88 3121.49c93.56,0 168.99,28.67 226.32,85.99 57.32,57.33 85.99,137.35 85.99,240.08l0 447.12 -192.61 0 0 -420.98c0,-59.62 -15.13,-105.24 -45.4,-136.89 -30.27,-31.64 -71.55,-47.47 -123.82,-47.47 -52.28,0 -93.78,15.83 -124.5,47.47 -30.73,31.65 -46.09,77.28 -46.09,136.89l0 420.98 -192.61 0 0 -420.98c0,-59.62 -15.13,-105.24 -45.4,-136.89 -30.27,-31.64 -71.54,-47.47 -123.81,-47.47 -53.2,0 -95.16,15.83 -125.88,47.47 -30.73,31.65 -46.09,77.28 -46.09,136.89l0 420.98 -192.61 0 0 -762.17 192.61 0 0 92.18c24.76,-32.1 56.64,-57.33 95.62,-75.67 38.98,-18.34 81.86,-27.52 128.63,-27.52 59.62,0 112.81,12.62 159.59,37.84 46.77,25.22 83,61.22 108.68,107.99 24.76,-44.03 60.76,-79.34 107.99,-105.93 47.24,-26.6 98.37,-39.9 153.39,-39.9zm1105.56 375.59c0,27.51 -1.83,52.28 -5.5,74.29l-557.18 0c4.59,55.03 23.85,98.14 57.79,129.32 33.93,31.18 75.67,46.78 125.19,46.78 71.54,0 122.43,-30.73 152.7,-92.18l207.74 0c-22.01,73.37 -64.2,133.67 -126.56,180.91 -62.37,47.23 -138.95,70.85 -229.76,70.85 -73.37,0 -139.18,-16.28 -197.42,-48.84 -58.24,-32.56 -103.64,-78.65 -136.2,-138.26 -32.56,-59.62 -48.84,-128.4 -48.84,-206.36 0,-78.89 16.05,-148.13 48.16,-207.75 32.1,-59.61 77.04,-105.47 134.82,-137.57 57.78,-32.1 124.27,-48.15 199.48,-48.15 72.46,0 137.35,15.59 194.67,46.78 57.33,31.18 101.81,75.44 133.45,132.75 31.64,57.33 47.46,123.13 47.46,197.43zm-199.48 -55.04c-0.92,-49.53 -18.8,-89.2 -53.66,-119 -34.85,-29.81 -77.5,-44.71 -127.94,-44.71 -47.7,0 -87.82,14.44 -120.38,43.34 -32.56,28.89 -52.51,69.02 -59.84,120.37l361.82 0zm434.19 -191.23c24.76,-40.36 57.1,-72 96.99,-94.93 39.9,-22.93 85.54,-34.4 136.89,-34.4l0 202.24 -50.91 0c-60.53,0 -106.15,14.22 -136.88,42.65 -30.73,28.44 -46.09,77.96 -46.09,148.58l0 379.71 -192.61 0 0 -762.17 192.61 0 0 118.31zm687.33 -129.32c90.81,0 164.17,28.67 220.12,85.99 55.96,57.33 83.93,137.35 83.93,240.08l0 447.12 -192.61 0 0 -420.98c0,-60.54 -15.13,-107.08 -45.4,-139.64 -30.27,-32.56 -71.54,-48.84 -123.81,-48.84 -53.2,0 -95.16,16.28 -125.88,48.84 -30.73,32.56 -46.09,79.11 -46.09,139.64l0 420.98 -192.61 0 0 -762.17 192.61 0 0 94.93c25.68,-33.02 58.47,-58.93 98.37,-77.73 39.9,-18.8 83.7,-28.21 131.38,-28.21z"/>
    <g>
     <polygon class="fil3 str9" points="21084.61,2980.45 20752.42,4046.73 20949.66,4046.73 21281.85,2980.45 "/>
     <polygon class="fil3" points="21275.92,3828.37 21275.92,3623.75 21565.67,3513.6 21275.92,3403.44 21275.92,3198.82 21840.78,3409.02 21842.13,3408.52 21842.13,3409.52 21842.13,3617.69 21842.13,3618.69 21840.78,3618.19 "/>
    </g>
    <path class="fil16" d="M15114.49 3484.93c0,-17.25 -6.14,-31.22 -18.42,-41.7 -12.28,-10.47 -33.87,-20.42 -64.66,-29.63 -53.77,-15.56 -94.41,-33.97 -121.81,-55.25 -27.51,-21.27 -41.27,-50.48 -41.27,-87.41 0,-37.05 15.77,-67.31 47.31,-90.7 31.53,-23.5 71.75,-35.25 120.74,-35.25 49.64,0 90.07,13.23 121.17,39.59 31.22,26.35 46.36,58.84 45.3,97.47l-0.64 1.8 -87.73 0c0,-20.53 -6.99,-37.15 -20.96,-49.96 -13.86,-12.7 -33.44,-19.05 -58.74,-19.05 -24.13,0 -42.86,5.3 -56.09,15.99 -13.23,10.68 -19.89,24.23 -19.89,40.85 0,15.13 7.09,27.62 21.27,37.36 14.18,9.73 38.63,20 73.34,30.9 49.85,13.76 87.52,32.07 113.13,54.82 25.71,22.76 38.52,52.6 38.52,89.54 0,38.63 -15.24,69.11 -45.72,91.44 -30.59,22.33 -70.8,33.44 -120.85,33.44 -49.11,0 -92.08,-12.7 -128.58,-37.99 -36.62,-25.3 -54.4,-60.86 -53.34,-106.46l0.64 -1.91 88.05 0c0,26.88 8.15,46.57 24.55,59.06 16.51,12.49 39.37,18.73 68.69,18.73 24.66,0 43.5,-5.08 56.51,-15.13 13.02,-10.16 19.48,-23.61 19.48,-40.54z"/>
    <path id="1" class="fil16" d="M15373.77 3185.44l0 82.13 56.41 0 0 63.5 -56.41 0 0 170.7c0,13.02 2.64,22.33 8.04,27.94 5.4,5.61 12.59,8.36 21.7,8.36 4.76,0 8.89,-0.21 12.27,-0.74 3.39,-0.53 7.41,-1.48 11.86,-2.65l7.83 65.2c-9.1,3.17 -17.99,5.5 -26.67,6.98 -8.68,1.59 -18.1,2.33 -28.26,2.33 -31.22,0 -55.25,-8.57 -72.07,-25.72 -16.83,-17.14 -25.3,-44.24 -25.3,-81.49l0 -170.91 -49 0 0 -63.5 49 0 0 -82.13 90.6 0z"/>
    <path id="2" class="fil16" d="M15684.79 3602.83c-3.39,-7.62 -6.24,-15.66 -8.57,-24.24 -2.44,-8.46 -4.13,-17.14 -5.08,-26.03 -9.32,16.4 -21.59,29.84 -36.83,40.53 -15.14,10.69 -33.34,16.09 -54.4,16.09 -35.14,0 -62.23,-9 -81.18,-27.09 -19.05,-18.1 -28.57,-42.76 -28.57,-73.88 0,-32.91 12.7,-58.31 37.99,-76.41 25.3,-18.09 62.23,-27.09 110.8,-27.09l50.59 0 0 -26.67c0,-16.09 -4.23,-28.58 -12.7,-37.47 -8.47,-8.89 -20.96,-13.33 -37.57,-13.33 -14.61,0 -25.93,3.6 -33.87,10.69 -8.04,7.09 -11.96,16.93 -11.96,29.63l-87.42 -0.32 -0.31 -1.9c-1.48,-28.26 10.79,-52.71 36.83,-73.34 26.03,-20.53 60.32,-30.8 102.66,-30.8 40.11,0 72.6,10.16 97.68,30.59 24.98,20.32 37.46,49.31 37.46,86.88l0 138.53c0,15.77 1.27,30.59 3.6,44.34 2.44,13.87 6.14,27.63 11.33,41.28l-90.49 0zm-82.87 -60.33c15.98,0 30.06,-3.91 42.55,-11.74 12.38,-7.83 20.74,-16.94 25.08,-27.31l0 -47.31 -50.59 0c-19.15,0 -33.76,4.77 -43.71,14.4 -9.84,9.63 -14.81,21.16 -14.81,34.82 0,11.11 3.7,20.11 11.11,26.88 7.51,6.88 17.57,10.26 30.37,10.26z"/>
    <path id="3" class="fil16" d="M15969.68 3539.33c16.19,0 29.11,-4.66 38.74,-13.97 9.73,-9.31 14.6,-21.8 14.6,-37.47l82.23 0 0.85 1.91c0.85,33.87 -11.85,62.23 -38.31,85.09 -26.35,22.86 -59.06,34.29 -98.11,34.29 -49.95,0 -88.58,-15.77 -115.66,-47.41 -26.99,-31.65 -40.54,-72.18 -40.54,-121.81l0 -9.21c0,-49.42 13.44,-90.06 40.43,-121.8 26.99,-31.86 65.51,-47.73 115.45,-47.73 41.39,0 74.72,11.75 100.02,35.35 25.29,23.6 37.57,54.61 36.72,93.03l-0.63 1.79 -82.45 0c0,-17.25 -4.76,-31.64 -14.29,-43.18 -9.41,-11.43 -22.54,-17.14 -39.37,-17.14 -23.91,0 -40.85,9.31 -50.69,27.83 -9.74,18.52 -14.71,42.44 -14.71,71.65l0 9.32c0,29.84 4.97,53.87 14.71,72.17 9.84,18.21 26.88,27.31 51.01,27.31z"/>
    <polygon id="4" class="fil16" points="16272.88,3463.14 16248.12,3463.14 16248.12,3602.83 16157.52,3602.83 16157.52,3118.98 16248.12,3118.98 16248.12,3393.29 16270.45,3393.29 16348.23,3267.56 16453,3267.56 16345.69,3419.43 16469.4,3602.83 16365.58,3602.83 "/>
    <path id="5" class="fil13 str7" d="M15114.49 3484.93c0,-17.25 -6.14,-31.22 -18.42,-41.7 -12.28,-10.47 -33.87,-20.42 -64.66,-29.63 -53.77,-15.56 -94.41,-33.97 -121.81,-55.25 -27.51,-21.27 -41.27,-50.48 -41.27,-87.41 0,-37.05 15.77,-67.31 47.31,-90.7 31.53,-23.5 71.75,-35.25 120.74,-35.25 49.64,0 90.07,13.23 121.17,39.59 31.22,26.35 46.36,58.84 45.3,97.47l-0.64 1.8 -87.73 0c0,-20.53 -6.99,-37.15 -20.96,-49.96 -13.86,-12.7 -33.44,-19.05 -58.74,-19.05 -24.13,0 -42.86,5.3 -56.09,15.99 -13.23,10.68 -19.89,24.23 -19.89,40.85 0,15.13 7.09,27.62 21.27,37.36 14.18,9.73 38.63,20 73.34,30.9 49.85,13.76 87.52,32.07 113.13,54.82 25.71,22.76 38.52,52.6 38.52,89.54 0,38.63 -15.24,69.11 -45.72,91.44 -30.59,22.33 -70.8,33.44 -120.85,33.44 -49.11,0 -92.08,-12.7 -128.58,-37.99 -36.62,-25.3 -54.4,-60.86 -53.34,-106.46l0.64 -1.91 88.05 0c0,26.88 8.15,46.57 24.55,59.06 16.51,12.49 39.37,18.73 68.69,18.73 24.66,0 43.5,-5.08 56.51,-15.13 13.02,-10.16 19.48,-23.61 19.48,-40.54z"/>
    <path id="6" class="fil13 str7" d="M15373.77 3185.44l0 82.13 56.41 0 0 63.5 -56.41 0 0 170.7c0,13.02 2.64,22.33 8.04,27.94 5.4,5.61 12.59,8.36 21.7,8.36 4.76,0 8.89,-0.21 12.27,-0.74 3.39,-0.53 7.41,-1.48 11.86,-2.65l7.83 65.2c-9.1,3.17 -17.99,5.5 -26.67,6.98 -8.68,1.59 -18.1,2.33 -28.26,2.33 -31.22,0 -55.25,-8.57 -72.07,-25.72 -16.83,-17.14 -25.3,-44.24 -25.3,-81.49l0 -170.91 -49 0 0 -63.5 49 0 0 -82.13 90.6 0z"/>
    <path id="7" class="fil13 str7" d="M15684.79 3602.83c-3.39,-7.62 -6.24,-15.66 -8.57,-24.24 -2.44,-8.46 -4.13,-17.14 -5.08,-26.03 -9.32,16.4 -21.59,29.84 -36.83,40.53 -15.14,10.69 -33.34,16.09 -54.4,16.09 -35.14,0 -62.23,-9 -81.18,-27.09 -19.05,-18.1 -28.57,-42.76 -28.57,-73.88 0,-32.91 12.7,-58.31 37.99,-76.41 25.3,-18.09 62.23,-27.09 110.8,-27.09l50.59 0 0 -26.67c0,-16.09 -4.23,-28.58 -12.7,-37.47 -8.47,-8.89 -20.96,-13.33 -37.57,-13.33 -14.61,0 -25.93,3.6 -33.87,10.69 -8.04,7.09 -11.96,16.93 -11.96,29.63l-87.42 -0.32 -0.31 -1.9c-1.48,-28.26 10.79,-52.71 36.83,-73.34 26.03,-20.53 60.32,-30.8 102.66,-30.8 40.11,0 72.6,10.16 97.68,30.59 24.98,20.32 37.46,49.31 37.46,86.88l0 138.53c0,15.77 1.27,30.59 3.6,44.34 2.44,13.87 6.14,27.63 11.33,41.28l-90.49 0zm-82.87 -60.33c15.98,0 30.06,-3.91 42.55,-11.74 12.38,-7.83 20.74,-16.94 25.08,-27.31l0 -47.31 -50.59 0c-19.15,0 -33.76,4.77 -43.71,14.4 -9.84,9.63 -14.81,21.16 -14.81,34.82 0,11.11 3.7,20.11 11.11,26.88 7.51,6.88 17.57,10.26 30.37,10.26z"/>
    <path id="8" class="fil13 str7" d="M15969.68 3539.33c16.19,0 29.11,-4.66 38.74,-13.97 9.73,-9.31 14.6,-21.8 14.6,-37.47l82.23 0 0.85 1.91c0.85,33.87 -11.85,62.23 -38.31,85.09 -26.35,22.86 -59.06,34.29 -98.11,34.29 -49.95,0 -88.58,-15.77 -115.66,-47.41 -26.99,-31.65 -40.54,-72.18 -40.54,-121.81l0 -9.21c0,-49.42 13.44,-90.06 40.43,-121.8 26.99,-31.86 65.51,-47.73 115.45,-47.73 41.39,0 74.72,11.75 100.02,35.35 25.29,23.6 37.57,54.61 36.72,93.03l-0.63 1.79 -82.45 0c0,-17.25 -4.76,-31.64 -14.29,-43.18 -9.41,-11.43 -22.54,-17.14 -39.37,-17.14 -23.91,0 -40.85,9.31 -50.69,27.83 -9.74,18.52 -14.71,42.44 -14.71,71.65l0 9.32c0,29.84 4.97,53.87 14.71,72.17 9.84,18.21 26.88,27.31 51.01,27.31z"/>
    <polygon id="9" class="fil13 str7" points="16272.88,3463.14 16248.12,3463.14 16248.12,3602.83 16157.52,3602.83 16157.52,3118.98 16248.12,3118.98 16248.12,3393.29 16270.45,3393.29 16348.23,3267.56 16453,3267.56 16345.69,3419.43 16469.4,3602.83 16365.58,3602.83 "/>
    <path class="fil12" d="M15976.19 5663.86c-21.82,0 -40.73,-5.55 -56.72,-16.65 -15.99,-11.1 -23.99,-29.45 -23.99,-55.04 0,-30.85 15.99,-51.92 47.98,-63.21 -9.03,-4.89 -16.47,-11.2 -22.3,-18.91 -5.83,-7.72 -8.75,-16.65 -8.75,-26.81 0,-14.68 5.18,-25.78 15.53,-33.3 10.34,-7.53 21.73,-12.8 34.14,-15.81 -12.41,-9.03 -22.2,-20.13 -29.35,-33.3 -7.15,-13.17 -10.72,-27.66 -10.72,-43.46 0,-31.61 10.72,-56.16 32.17,-73.66 21.45,-17.5 50.8,-26.25 88.05,-26.25 20.7,0 39.52,3.39 56.45,10.16 24.46,-11.66 38.76,-28.79 42.9,-51.36l47.41 0c0,17.68 -5.18,32.92 -15.52,45.72 -10.35,12.79 -24.37,21.26 -42.05,25.4 21.07,18.81 31.6,42.14 31.6,69.99 0,31.61 -10.81,56.16 -32.45,73.66 -21.64,17.49 -51.08,26.24 -88.34,26.24l-47.41 0c-10.16,0 -17.97,2.26 -23.42,6.78 -5.46,4.51 -8.19,10.34 -8.19,17.49 0,7.15 2.73,12.99 8.19,17.5 5.45,4.52 13.26,6.77 23.42,6.77l119.09 0c23.33,0 41.77,7.06 55.31,21.17 13.55,14.11 20.32,31.14 20.32,51.08 0,14.3 -3.2,28.04 -9.59,41.21 -6.4,13.17 -16.65,23.89 -30.76,32.17 -14.12,8.28 -31.9,12.42 -53.34,12.42l-119.66 0zm66.61 -244.96c23.33,0 41.01,-5.36 53.06,-16.09 12.04,-10.72 18.06,-25.87 18.06,-45.43 0,-19.57 -6.02,-34.72 -18.06,-45.44 -12.05,-10.72 -29.73,-16.09 -53.06,-16.09 -23.33,0 -41.02,5.37 -53.06,16.09 -12.04,10.72 -18.06,25.87 -18.06,45.44 0,19.56 6.02,34.71 18.06,45.43 12.04,10.73 29.73,16.09 53.06,16.09zm54.19 204.88c12.41,0 22.76,-3.38 31.04,-10.16 8.28,-6.77 12.42,-15.8 12.42,-27.09 0,-11.29 -3.3,-20.23 -9.88,-26.81 -6.59,-6.59 -15.33,-9.88 -26.25,-9.88l-123.6 0c-10.91,0 -19.57,3.29 -25.96,9.88 -6.4,6.58 -9.6,15.52 -9.6,26.81 0,11.29 3.2,20.32 9.6,27.09 6.39,6.78 15.05,10.16 25.96,10.16l116.27 0z"/>
    <path id="1" class="fil12" d="M16236.96 5153.06l49.67 0 0 55.31 -49.67 0 0 -55.31zm0 111.18l49.67 0 0 296.89 -49.67 0 0 -296.89z"/>
    <path id="2" class="fil12" d="M16429.43 5567.35c-20.32,0 -35.19,-6.02 -44.59,-18.06 -9.41,-12.04 -14.12,-26.91 -14.12,-44.59l0 -199.24 -36.12 0 0 -41.21 36.69 0 10.72 -82.4 38.38 0 0 82.4 50.24 0 0 41.21 -50.24 0 0 194.72c0,17.69 8.28,26.53 24.84,26.53l25.4 0 0 32.74c-4.89,2.25 -11.29,4.14 -19.19,5.64 -7.9,1.51 -15.24,2.26 -22.01,2.26z"/>
    <path id="3" class="fil12" d="M16519.16 5153.06l49.67 0 0 144.49 3.95 0c20.7,-26.72 51.93,-40.08 93.7,-40.08 61.71,0 92.56,33.68 92.56,101.04l0 202.62 -49.67 0 0 -199.24c0,-23.7 -5.26,-40.17 -15.8,-49.39 -10.54,-9.22 -25.78,-13.82 -45.72,-13.82 -14.3,0 -27.47,3.48 -39.51,10.44 -12.04,6.96 -21.64,17.02 -28.79,30.2 -7.15,13.17 -10.72,28.59 -10.72,46.28l0 175.53 -49.67 0 0 -408.07z"/>
    <path id="4" class="fil12" d="M16923.85 5567.91c-29.72,0 -52.58,-7.99 -68.58,-23.99 -15.99,-15.99 -23.99,-41.67 -23.99,-77.04l0 -202.63 49.67 0 0 199.24c0,23.71 5.27,40.17 15.81,49.39 10.54,9.22 25.78,13.83 45.72,13.83 14.3,0 27.47,-3.48 39.51,-10.44 12.04,-6.96 21.64,-17.03 28.79,-30.2 7.15,-13.17 10.72,-28.6 10.72,-46.28l0 -175.54 49.67 0 0 296.89 -37.82 0 -5.64 -40.08 -3.95 0c-21.83,31.24 -55.13,46.85 -99.91,46.85z"/>
    <path id="5" class="fil12" d="M17285.64 5567.91c-19.57,0 -37.35,-3.95 -53.34,-11.85 -15.99,-7.9 -28.88,-19.57 -38.66,-35l-3.39 0 -6.21 40.08 -37.25 0 0 -408.07 49.67 0 0 145.05 3.38 0c9.79,-14.3 22.02,-24.65 36.69,-31.04 14.68,-6.4 32.55,-9.6 53.63,-9.6 34.99,0 62.55,12.89 82.69,38.67 20.13,25.77 30.19,64.62 30.19,116.54 0,53.06 -10.16,92.19 -30.48,117.4 -20.32,25.21 -49.29,37.81 -86.92,37.81zm-12.42 -41.2c19.19,0 34.43,-3.58 45.72,-10.73 11.29,-7.14 19.57,-18.81 24.84,-34.99 5.27,-16.18 7.9,-38.19 7.9,-66.04l0 -2.26c0,-28.22 -2.63,-50.61 -7.9,-67.17 -5.27,-16.55 -13.64,-28.5 -25.12,-35.84 -11.48,-7.34 -26.62,-11 -45.44,-11 -26.34,0 -45.72,9.59 -58.14,28.78 -12.41,19.19 -18.62,47.6 -18.62,85.23l0 2.26c0,36.88 6.11,64.72 18.34,83.54 12.23,18.81 31.71,28.22 58.42,28.22z"/>
    <polygon id="6" class="fil12" points="17474.15,5500.18 17530.6,5500.18 17530.6,5561.14 17474.15,5561.14 "/>
    <path id="7" class="fil12" d="M17730.4 5567.91c-45.16,0 -78.27,-12.51 -99.35,-37.53 -21.07,-25.03 -31.6,-64.25 -31.6,-117.68 0,-53.06 10.63,-92.19 31.89,-117.39 21.26,-25.21 54.28,-37.82 99.06,-37.82 40.64,0 70.36,9.78 89.18,29.35 18.81,19.57 28.22,48.73 28.22,87.49l-50.8 0c0,-26.72 -4.8,-46 -14.39,-57.85 -9.6,-11.86 -27,-17.78 -52.21,-17.78 -27.47,0 -47.61,8.93 -60.4,26.81 -12.79,17.87 -19.19,46.94 -19.19,87.2l0 2.26c0,39.89 6.21,68.49 18.63,85.79 12.41,17.31 32.73,25.97 60.96,25.97 24.83,0 42.61,-6.3 53.34,-18.91 10.72,-12.61 16.08,-31.51 16.08,-56.73l47.98 0c0,33.87 -9.6,61.81 -28.79,83.82 -19.19,22.02 -48.73,33.02 -88.61,33.02z"/>
    <path id="8" class="fil12" d="M18018.8 5567.91c-45.53,0 -79.77,-12.7 -102.72,-38.1 -22.96,-25.4 -34.43,-64.44 -34.43,-117.11 0,-52.68 11.47,-91.72 34.43,-117.11 22.95,-25.4 57.19,-38.1 102.72,-38.1 45.54,0 79.78,12.7 102.73,38.1 22.96,25.4 34.43,64.44 34.43,117.11 0,52.68 -11.47,91.72 -34.43,117.11 -22.95,25.4 -57.19,38.1 -102.73,38.1zm0 -41.2c30.11,0 51.93,-8.75 65.48,-26.25 13.55,-17.49 20.32,-46 20.32,-85.51l0 -4.52c0,-39.51 -6.77,-68.01 -20.32,-85.51 -13.55,-17.5 -35.37,-26.24 -65.48,-26.24 -30.1,0 -51.92,8.74 -65.47,26.24 -13.55,17.5 -20.32,46 -20.32,85.51l0 4.52c0,39.51 6.77,68.02 20.32,85.51 13.55,17.5 35.37,26.25 65.47,26.25z"/>
    <path id="9" class="fil12" d="M18213.53 5264.25l37.81 0 5.65 40.08 3.95 0c20.32,-31.23 50.05,-46.85 89.18,-46.85 38.38,0 63.97,15.62 76.77,46.85l3.38 0c10.16,-15.05 23.43,-26.62 39.8,-34.71 16.36,-8.09 33.77,-12.14 52.21,-12.14 58.32,0 87.48,29.92 87.48,89.75l0 213.91 -49.67 0 0 -204.88c0,-21.45 -4.7,-36.41 -14.11,-44.87 -9.4,-8.47 -22.39,-12.7 -38.94,-12.7 -19.95,0 -36.69,7.9 -50.24,23.7 -13.55,15.81 -20.32,36.88 -20.32,63.22l0 175.53 -49.67 0 0 -204.88c0,-21.45 -4.51,-36.41 -13.55,-44.87 -9.03,-8.47 -21.82,-12.7 -38.38,-12.7 -12.79,0 -24.65,3.48 -35.56,10.44 -10.91,6.96 -19.66,17.02 -26.24,30.2 -6.59,13.17 -9.88,28.59 -9.88,46.28l0 175.53 -49.67 0 0 -296.89z"/>
    <polygon id="10" class="fil12" points="18762.71,5146.3 18802.22,5146.3 18686.51,5588.79 18646.43,5588.79 "/>
    <path id="11" class="fil12" d="M18921.3 5567.91c-25.59,0 -48.35,-6.02 -68.29,-18.06 -19.95,-12.04 -29.92,-33.87 -29.92,-65.47 0,-38.01 16.93,-64.07 50.8,-78.18 33.87,-14.11 82.78,-21.17 146.74,-21.17l0 -32.73c0,-17.31 -4.89,-30.58 -14.67,-39.8 -9.79,-9.22 -27.47,-13.82 -53.06,-13.82 -24.08,0 -41.3,4.51 -51.65,13.54 -10.34,9.03 -15.52,20.13 -15.52,33.3l0 6.78 -47.97 0c-0.38,-2.26 -0.57,-6.4 -0.57,-12.42 0,-26.34 10.91,-46.66 32.74,-60.96 21.82,-14.3 50.99,-21.45 87.49,-21.45 36.87,0 64.91,7.72 84.1,23.14 19.19,15.43 28.78,37.26 28.78,65.48l0 160.85c0,6.78 1.89,11.76 5.65,14.96 3.76,3.2 8.47,4.8 14.11,4.8l22.58 0 0 32.17c-9.79,4.52 -22.58,6.78 -38.38,6.78 -12.8,0 -23.52,-3.86 -32.18,-11.58 -8.65,-7.71 -14.48,-17.96 -17.5,-30.76l-3.95 0c-10.16,13.93 -23.98,24.84 -41.48,32.74 -17.5,7.9 -36.79,11.85 -57.86,11.85zm12.98 -41.2c14.68,0 28.6,-3.01 41.77,-9.03 13.17,-6.02 23.9,-14.96 32.18,-26.81 8.27,-11.86 12.41,-26.25 12.41,-43.18l0 -21.45c-48.54,0 -84.94,3.86 -109.21,11.57 -24.27,7.71 -36.4,22.3 -36.4,43.74 0,16.18 4.98,27.76 14.96,34.72 9.97,6.96 24.74,10.44 44.3,10.44z"/>
    <path id="12" class="fil12" d="M19207.46 5663.86c-21.82,0 -40.73,-5.55 -56.72,-16.65 -15.99,-11.1 -23.99,-29.45 -23.99,-55.04 0,-30.85 15.99,-51.92 47.98,-63.21 -9.03,-4.89 -16.47,-11.2 -22.3,-18.91 -5.83,-7.72 -8.75,-16.65 -8.75,-26.81 0,-14.68 5.18,-25.78 15.53,-33.3 10.34,-7.53 21.73,-12.8 34.14,-15.81 -12.41,-9.03 -22.2,-20.13 -29.35,-33.3 -7.15,-13.17 -10.72,-27.66 -10.72,-43.46 0,-31.61 10.72,-56.16 32.17,-73.66 21.45,-17.5 50.8,-26.25 88.05,-26.25 20.7,0 39.52,3.39 56.45,10.16 24.46,-11.66 38.76,-28.79 42.9,-51.36l47.41 0c0,17.68 -5.18,32.92 -15.52,45.72 -10.35,12.79 -24.37,21.26 -42.05,25.4 21.07,18.81 31.6,42.14 31.6,69.99 0,31.61 -10.81,56.16 -32.45,73.66 -21.64,17.49 -51.08,26.24 -88.34,26.24l-47.41 0c-10.16,0 -17.97,2.26 -23.42,6.78 -5.46,4.51 -8.19,10.34 -8.19,17.49 0,7.15 2.73,12.99 8.19,17.5 5.45,4.52 13.26,6.77 23.42,6.77l119.09 0c23.33,0 41.77,7.06 55.31,21.17 13.55,14.11 20.32,31.14 20.32,51.08 0,14.3 -3.2,28.04 -9.59,41.21 -6.4,13.17 -16.65,23.89 -30.76,32.17 -14.12,8.28 -31.9,12.42 -53.34,12.42l-119.66 0zm66.61 -244.96c23.33,0 41.01,-5.36 53.06,-16.09 12.04,-10.72 18.06,-25.87 18.06,-45.43 0,-19.57 -6.02,-34.72 -18.06,-45.44 -12.05,-10.72 -29.73,-16.09 -53.06,-16.09 -23.33,0 -41.02,5.37 -53.06,16.09 -12.04,10.72 -18.06,25.87 -18.06,45.44 0,19.56 6.02,34.71 18.06,45.43 12.04,10.73 29.73,16.09 53.06,16.09zm54.19 204.88c12.41,0 22.76,-3.38 31.04,-10.16 8.28,-6.77 12.42,-15.8 12.42,-27.09 0,-11.29 -3.3,-20.23 -9.88,-26.81 -6.59,-6.59 -15.33,-9.88 -26.25,-9.88l-123.6 0c-10.91,0 -19.57,3.29 -25.96,9.88 -6.4,6.58 -9.6,15.52 -9.6,26.81 0,11.29 3.2,20.32 9.6,27.09 6.39,6.78 15.05,10.16 25.96,10.16l116.27 0z"/>
    <path id="13" class="fil12" d="M19478.94 5305.46l-43.46 0 0 -41.21 43.46 0 0 -47.41c0,-19.57 4.89,-35.84 14.68,-48.82 9.78,-12.98 26.34,-19.48 49.67,-19.48 7.52,0 15.14,0.66 22.86,1.98 7.71,1.32 14.2,2.92 19.47,4.8l0 34.43 -29.35 0c-18.44,0 -27.66,9.03 -27.66,27.09l0 47.41 57.01 0 0 41.21 -57.01 0 0 255.68 -49.67 0 0 -255.68z"/>
    <path id="14" class="fil12" d="M19692.29 5567.35c-20.32,0 -35.19,-6.02 -44.59,-18.06 -9.41,-12.04 -14.12,-26.91 -14.12,-44.59l0 -199.24 -36.12 0 0 -41.21 36.69 0 10.72 -82.4 38.38 0 0 82.4 50.24 0 0 41.21 -50.24 0 0 194.72c0,17.69 8.28,26.53 24.84,26.53l25.4 0 0 32.74c-4.89,2.25 -11.29,4.14 -19.19,5.64 -7.9,1.51 -15.24,2.26 -22.01,2.26z"/>
    <path id="15" class="fil12" d="M19907.89 5567.91c-47.79,0 -83.35,-12.6 -106.67,-37.81 -23.33,-25.22 -35,-64.35 -35,-117.4 0,-53.06 11.67,-92.19 35,-117.39 23.33,-25.21 58.89,-37.82 106.67,-37.82 42.9,0 74.97,11.38 96.23,34.15 21.27,22.77 31.9,59.36 31.9,109.77l0 24.84 -218.43 0c1.88,34.24 10.06,59.55 24.55,75.92 14.49,16.36 36.41,24.55 65.76,24.55 23.7,0 42.9,-5.46 57.57,-16.37 14.68,-10.91 22.01,-27.66 22.01,-50.23l48.55 0c0,34.61 -11.95,61.24 -35.85,79.86 -23.89,18.63 -54.65,27.94 -92.28,27.94zm76.2 -182.87c0,-57.57 -25.4,-86.35 -76.2,-86.35 -28.22,0 -49.39,6.77 -63.5,20.32 -14.11,13.54 -22.67,35.55 -25.68,66.03l165.37 0z"/>
    <path id="16" class="fil12" d="M20208.73 5567.91c-45.16,0 -78.27,-12.51 -99.35,-37.53 -21.07,-25.03 -31.6,-64.25 -31.6,-117.68 0,-53.06 10.63,-92.19 31.89,-117.39 21.26,-25.21 54.28,-37.82 99.06,-37.82 40.64,0 70.36,9.78 89.18,29.35 18.81,19.57 28.22,48.73 28.22,87.49l-50.8 0c0,-26.72 -4.8,-46 -14.39,-57.85 -9.6,-11.86 -27,-17.78 -52.21,-17.78 -27.47,0 -47.61,8.93 -60.4,26.81 -12.79,17.87 -19.19,46.94 -19.19,87.2l0 2.26c0,39.89 6.21,68.49 18.63,85.79 12.41,17.31 32.73,25.97 60.96,25.97 24.83,0 42.61,-6.3 53.34,-18.91 10.72,-12.61 16.08,-31.51 16.08,-56.73l47.98 0c0,33.87 -9.6,61.81 -28.79,83.82 -19.19,22.02 -48.73,33.02 -88.61,33.02z"/>
    <path id="17" class="fil12" d="M20378.05 5153.06l49.67 0 0 144.49 3.95 0c20.7,-26.72 51.93,-40.08 93.7,-40.08 61.71,0 92.56,33.68 92.56,101.04l0 202.62 -49.67 0 0 -199.24c0,-23.7 -5.26,-40.17 -15.8,-49.39 -10.54,-9.22 -25.78,-13.82 -45.72,-13.82 -14.3,0 -27.47,3.48 -39.51,10.44 -12.04,6.96 -21.64,17.02 -28.79,30.2 -7.15,13.17 -10.72,28.59 -10.72,46.28l0 175.53 -49.67 0 0 -408.07z"/>
    <g>
     <path class="fil17" d="M15929.61 1232.55c18.41,-27.28 43.82,-49.45 76.22,-66.5 32.39,-17.05 69.4,-25.57 110.99,-25.57 48.42,0 92.25,11.93 131.45,35.8 39.22,23.88 70.25,57.81 93.1,101.8 22.85,43.99 34.27,94.97 34.27,152.94 0,57.97 -11.42,109.28 -34.27,153.96 -22.85,44.67 -53.88,79.28 -93.1,103.84 -39.21,24.55 -83.04,36.83 -131.45,36.83 -42.29,0 -79.29,-8.36 -110.99,-25.07 -31.72,-16.71 -57.12,-38.36 -76.22,-64.96l0 80.82 -143.22 0 0 -757.02 143.22 0 0 273.14zm299.75 198.47c0,-34.11 -6.99,-63.6 -20.98,-88.5 -13.98,-24.89 -32.39,-43.82 -55.24,-56.78 -22.85,-12.96 -47.57,-19.44 -74.17,-19.44 -25.92,0 -50.3,6.65 -73.15,19.95 -22.85,13.3 -41.27,32.57 -55.25,57.81 -13.98,25.23 -20.97,54.9 -20.97,89 0,34.1 6.99,63.77 20.97,89.01 13.98,25.23 32.4,44.5 55.25,57.8 22.85,13.3 47.23,19.95 73.15,19.95 26.6,0 51.32,-6.82 74.17,-20.46 22.85,-13.64 41.26,-33.08 55.24,-58.31 13.99,-25.24 20.98,-55.25 20.98,-90.03z"/>
     <path id="1" class="fil17" d="M16670.78 1725.65c-54.56,0 -103.67,-12.11 -147.31,-36.32 -43.65,-24.21 -77.92,-58.49 -102.81,-102.82 -24.9,-44.33 -37.35,-95.48 -37.35,-153.45 0,-57.97 12.79,-109.11 38.37,-153.45 25.58,-44.33 60.53,-78.6 104.86,-102.81 44.34,-24.22 93.78,-36.32 148.34,-36.32 54.56,0 104.01,12.1 148.33,36.32 44.33,24.21 79.29,58.48 104.86,102.81 25.58,44.34 38.37,95.49 38.37,153.45 0,57.98 -13.13,109.12 -39.39,153.45 -26.26,44.33 -61.72,78.61 -106.39,102.82 -44.67,24.21 -94.63,36.32 -149.87,36.32zm0 -124.81c25.92,0 50.3,-6.3 73.15,-18.92 22.85,-12.62 41.1,-31.55 54.74,-56.78 13.64,-25.24 20.46,-55.93 20.46,-92.08 0,-53.88 -14.15,-95.31 -42.46,-124.29 -28.3,-28.99 -62.92,-43.48 -103.84,-43.48 -40.92,0 -75.19,14.49 -102.82,43.48 -27.62,28.99 -41.43,70.42 -41.43,124.29 0,53.88 13.47,95.32 40.41,124.29 26.94,28.99 60.87,43.48 101.79,43.48z"/>
     <path id="2" class="fil17" d="M17262.59 1725.65c-54.56,0 -103.67,-12.11 -147.31,-36.32 -43.65,-24.21 -77.92,-58.49 -102.81,-102.82 -24.9,-44.33 -37.35,-95.48 -37.35,-153.45 0,-57.97 12.79,-109.11 38.37,-153.45 25.58,-44.33 60.53,-78.6 104.86,-102.81 44.34,-24.22 93.78,-36.32 148.34,-36.32 54.56,0 104.01,12.1 148.33,36.32 44.33,24.21 79.29,58.48 104.86,102.81 25.58,44.34 38.37,95.49 38.37,153.45 0,57.98 -13.13,109.12 -39.39,153.45 -26.26,44.33 -61.72,78.61 -106.39,102.82 -44.67,24.21 -94.63,36.32 -149.87,36.32zm0 -124.81c25.92,0 50.3,-6.3 73.15,-18.92 22.85,-12.62 41.1,-31.55 54.74,-56.78 13.64,-25.24 20.46,-55.93 20.46,-92.08 0,-53.88 -14.15,-95.31 -42.46,-124.29 -28.3,-28.99 -62.92,-43.48 -103.84,-43.48 -40.92,0 -75.19,14.49 -102.82,43.48 -27.62,28.99 -41.43,70.42 -41.43,124.29 0,53.88 13.47,95.32 40.41,124.29 26.94,28.99 60.87,43.48 101.79,43.48z"/>
     <path id="3" class="fil17" d="M17769.5 1267.34l0 274.17c0,19.09 4.6,32.91 13.81,41.43 9.21,8.53 24.73,12.79 46.55,12.79l66.5 0 0 120.71 -90.03 0c-120.71,0 -181.07,-58.66 -181.07,-175.96l0 -273.14 -67.52 0 0 -117.65 67.52 0 0 -140.14 144.24 0 0 140.14 126.85 0 0 117.65 -126.85 0z"/>
     <path id="4" class="fil17" d="M17901.98 1433.06c0,-58.65 11.94,-109.97 35.81,-153.96 23.87,-43.99 56.95,-78.09 99.23,-102.3 42.29,-24.22 90.72,-36.32 145.27,-36.32 70.25,0 128.38,17.56 174.42,52.68 46.04,35.13 76.9,84.41 92.59,147.83l-154.47 0c-8.19,-24.56 -22,-43.82 -41.44,-57.81 -19.44,-13.98 -43.48,-20.97 -72.12,-20.97 -40.93,0 -73.32,14.84 -97.19,44.5 -23.88,29.67 -35.81,71.79 -35.81,126.34 0,53.88 11.93,95.66 35.81,125.32 23.87,29.67 56.26,44.5 97.19,44.5 57.97,0 95.82,-25.92 113.55,-77.75l154.47 0c-15.69,61.38 -46.72,110.14 -93.1,146.29 -46.38,36.14 -104.35,54.22 -173.91,54.22 -54.56,0 -102.99,-12.11 -145.27,-36.32 -42.28,-24.21 -75.36,-58.32 -99.23,-102.31 -23.87,-43.99 -35.81,-95.31 -35.81,-153.96z"/>
     <path id="5" class="fil17" d="M18456.96 1431.02c0,-57.3 11.43,-108.1 34.27,-152.43 22.85,-44.33 53.88,-78.43 93.1,-102.31 39.22,-23.87 83.04,-35.8 131.46,-35.8 42.28,0 79.28,8.52 110.99,25.57 31.71,17.05 57.12,38.54 76.22,64.46l0 -80.83 144.24 0 0 566.75 -144.24 0 0 -82.87c-18.42,26.6 -43.83,48.6 -76.22,65.99 -32.4,17.39 -69.74,26.09 -112.02,26.09 -47.74,0 -91.22,-12.28 -130.43,-36.83 -39.22,-24.56 -70.25,-59.17 -93.1,-103.84 -22.84,-44.68 -34.27,-96 -34.27,-153.96zm446.04 2.04c0,-34.78 -6.83,-64.62 -20.47,-89.52 -13.64,-24.89 -32.05,-43.99 -55.24,-57.29 -23.19,-13.3 -48.09,-19.95 -74.68,-19.95 -26.6,0 -51.16,6.48 -73.67,19.44 -22.5,12.96 -40.75,31.89 -54.73,56.78 -13.98,24.9 -20.97,54.39 -20.97,88.5 0,34.1 6.99,63.94 20.97,89.51 13.98,25.58 32.4,45.19 55.25,58.83 22.84,13.64 47.23,20.46 73.15,20.46 26.59,0 51.49,-6.65 74.68,-19.95 23.19,-13.3 41.6,-32.4 55.24,-57.29 13.64,-24.89 20.47,-54.73 20.47,-89.52z"/>
     <path id="6" class="fil17" d="M19830.36 1141.51c69.56,0 125.65,21.31 168.28,63.94 42.63,42.63 63.94,102.14 63.94,178.52l0 332.47 -143.22 0 0 -313.05c0,-44.33 -11.25,-78.26 -33.76,-101.79 -22.51,-23.53 -53.2,-35.3 -92.07,-35.3 -38.88,0 -69.74,11.77 -92.59,35.3 -22.85,23.53 -34.27,57.46 -34.27,101.79l0 313.05 -143.22 0 0 -313.05c0,-44.33 -11.26,-78.26 -33.76,-101.79 -22.51,-23.53 -53.2,-35.3 -92.08,-35.3 -39.56,0 -70.76,11.77 -93.61,35.3 -22.85,23.53 -34.27,57.46 -34.27,101.79l0 313.05 -143.22 0 0 -566.75 143.22 0 0 68.55c18.41,-23.87 42.12,-42.63 71.1,-56.27 28.99,-13.64 60.87,-20.46 95.66,-20.46 44.33,0 83.89,9.38 118.66,28.13 34.79,18.76 61.73,45.53 80.83,80.31 18.41,-32.73 45.18,-58.99 80.31,-78.77 35.12,-19.78 73.14,-29.67 114.06,-29.67z"/>
     <path id="7" class="fil17" d="M20281 1231.53c18.41,-25.92 43.82,-47.57 76.22,-64.96 32.39,-17.4 69.4,-26.09 110.99,-26.09 48.42,0 92.25,11.93 131.45,35.8 39.22,23.88 70.25,57.81 93.1,101.8 22.85,43.99 34.27,94.97 34.27,152.94 0,57.97 -11.42,109.28 -34.27,153.96 -22.85,44.67 -53.88,79.28 -93.1,103.84 -39.21,24.55 -83.04,36.83 -131.45,36.83 -41.6,0 -78.26,-8.53 -109.97,-25.58 -31.71,-17.05 -57.46,-38.53 -77.24,-64.45l0 350.89 -143.22 0 0 -836.83 143.22 0 0 81.85zm299.75 199.49c0,-34.11 -6.99,-63.6 -20.98,-88.5 -13.98,-24.89 -32.39,-43.82 -55.24,-56.78 -22.85,-12.96 -47.57,-19.44 -74.17,-19.44 -25.92,0 -50.3,6.65 -73.15,19.95 -22.85,13.3 -41.27,32.57 -55.25,57.81 -13.98,25.23 -20.97,54.9 -20.97,89 0,34.1 6.99,63.77 20.97,89.01 13.98,25.23 32.4,44.5 55.25,57.8 22.85,13.3 47.23,19.95 73.15,19.95 26.6,0 51.32,-6.82 74.17,-20.46 22.85,-13.64 41.26,-33.08 55.24,-58.31 13.99,-25.24 20.98,-55.25 20.98,-90.03z"/>
     <path class="fil18" d="M18059 1842.07l-27.16 0 0 -25.75 27.16 0 0 -29.64c0,-12.23 3.06,-22.4 9.17,-30.51 6.12,-8.12 16.46,-12.17 31.05,-12.17 4.7,0 9.46,0.41 14.28,1.23 4.82,0.83 8.88,1.83 12.17,3l0 21.52 -18.34 0c-11.52,0 -17.29,5.65 -17.29,16.93l0 29.64 35.63 0 0 25.75 -35.63 0 0 159.8 -31.04 0 0 -159.8z"/>
     <path id="1" class="fil18" d="M18224.79 2006.1c-28.45,0 -49.86,-7.93 -64.2,-23.81 -14.35,-15.87 -21.52,-40.28 -21.52,-73.2 0,-32.93 7.17,-57.33 21.52,-73.2 14.34,-15.88 35.75,-23.82 64.2,-23.82 28.46,0 49.86,7.94 64.21,23.82 14.35,15.87 21.52,40.27 21.52,73.2 0,32.92 -7.17,57.33 -21.52,73.2 -14.35,15.88 -35.75,23.81 -64.21,23.81zm0 -25.75c18.82,0 32.46,-5.47 40.93,-16.4 8.46,-10.94 12.7,-28.76 12.7,-53.45l0 -2.82c0,-24.7 -4.24,-42.51 -12.7,-53.45 -8.47,-10.93 -22.11,-16.4 -40.93,-16.4 -18.81,0 -32.45,5.47 -40.92,16.4 -8.47,10.94 -12.7,28.75 -12.7,53.45l0 2.82c0,24.69 4.23,42.51 12.7,53.45 8.47,10.93 22.11,16.4 40.92,16.4z"/>
     <path id="2" class="fil18" d="M18346.51 1816.32l23.63 0 3.53 27.87 2.12 0c3.52,-9.17 8.82,-16.82 15.87,-22.93 7.06,-6.12 16.35,-9.18 27.87,-9.18 4,0 7.59,0.42 10.76,1.24 3.18,0.82 5.12,1.35 5.82,1.59l0 29.98 -13.05 0c-13.17,0 -24.05,3.82 -32.63,11.47 -8.59,7.64 -12.88,19.58 -12.88,35.81l0 109.7 -31.04 0 0 -185.55z"/>
     <path id="3" class="fil18" d="M18648.82 2006.1c-12.23,0 -23.34,-2.47 -33.34,-7.41 -9.99,-4.93 -18.05,-12.22 -24.16,-21.87l-2.12 0 -3.88 25.05 -23.28 0 0 -255.05 31.04 0 0 90.66 2.12 0c6.11,-8.93 13.76,-15.4 22.93,-19.4 9.17,-4 20.34,-6 33.51,-6 21.87,0 39.1,8.06 51.68,24.17 12.59,16.11 18.88,40.39 18.88,72.85 0,33.16 -6.35,57.62 -19.05,73.38 -12.7,15.75 -30.81,23.63 -54.33,23.63zm-7.76 -25.75c11.99,0 21.52,-2.23 28.57,-6.7 7.06,-4.47 12.23,-11.76 15.53,-21.87 3.29,-10.12 4.94,-23.88 4.94,-41.28l0 -1.41c0,-17.64 -1.65,-31.63 -4.94,-41.98 -3.3,-10.35 -8.53,-17.82 -15.7,-22.4 -7.18,-4.59 -16.64,-6.88 -28.4,-6.88 -16.46,0 -28.58,5.99 -36.34,17.99 -7.76,11.99 -11.64,29.75 -11.64,53.27l0 1.41c0,23.05 3.82,40.45 11.47,52.21 7.64,11.76 19.81,17.64 36.51,17.64z"/>
     <path id="4" class="fil18" d="M18836.85 2006.1c-29.87,0 -52.1,-7.88 -66.68,-23.63 -14.58,-15.76 -21.87,-40.22 -21.87,-73.38 0,-33.16 7.29,-57.62 21.87,-73.38 14.58,-15.76 36.81,-23.64 66.68,-23.64 26.81,0 46.86,7.12 60.15,21.35 13.28,14.23 19.93,37.1 19.93,68.61l0 15.53 -136.52 0c1.18,21.4 6.29,37.21 15.35,47.44 9.05,10.24 22.75,15.35 41.1,15.35 14.81,0 26.81,-3.41 35.98,-10.23 9.17,-6.82 13.76,-17.29 13.76,-31.4l30.34 0c0,21.64 -7.47,38.28 -22.4,49.92 -14.94,11.64 -34.17,17.46 -57.68,17.46zm47.62 -114.29c0,-35.98 -15.87,-53.97 -47.62,-53.97 -17.64,0 -30.87,4.23 -39.69,12.7 -8.82,8.46 -14.17,22.22 -16.05,41.27l103.36 0z"/>
     <path id="5" class="fil18" d="M18987.49 2066.08c-13.64,0 -25.46,-3.47 -35.46,-10.41 -9.99,-6.94 -14.99,-18.4 -14.99,-34.4 0,-19.28 10,-32.45 29.99,-39.51 -5.65,-3.06 -10.29,-7 -13.94,-11.82 -3.64,-4.82 -5.47,-10.4 -5.47,-16.75 0,-9.18 3.24,-16.11 9.7,-20.82 6.47,-4.7 13.59,-7.99 21.35,-9.88 -7.76,-5.64 -13.88,-12.58 -18.35,-20.81 -4.47,-8.23 -6.7,-17.29 -6.7,-27.16 0,-19.76 6.7,-35.11 20.11,-46.04 13.4,-10.94 31.75,-16.41 55.03,-16.41 12.94,0 24.7,2.12 35.28,6.35 15.29,-7.29 24.23,-17.99 26.81,-32.1l29.64 0c0,11.06 -3.24,20.58 -9.71,28.58 -6.46,7.99 -15.22,13.28 -26.28,15.87 13.17,11.76 19.76,26.34 19.76,43.75 0,19.75 -6.76,35.1 -20.29,46.03 -13.52,10.94 -31.92,16.41 -55.21,16.41l-29.63 0c-6.35,0 -11.23,1.41 -14.64,4.23 -3.41,2.82 -5.12,6.47 -5.12,10.94 0,4.47 1.71,8.11 5.12,10.93 3.41,2.83 8.29,4.24 14.64,4.24l74.44 0c14.58,0 26.1,4.41 34.57,13.23 8.47,8.82 12.7,19.46 12.7,31.92 0,8.94 -2,17.52 -6,25.76 -4,8.23 -10.41,14.93 -19.23,20.1 -8.81,5.18 -19.93,7.77 -33.33,7.77l-74.79 0zm41.63 -153.1c14.58,0 25.63,-3.35 33.16,-10.05 7.52,-6.71 11.29,-16.17 11.29,-28.4 0,-12.23 -3.77,-21.7 -11.29,-28.4 -7.53,-6.71 -18.58,-10.06 -33.16,-10.06 -14.59,0 -25.64,3.35 -33.17,10.06 -7.52,6.7 -11.28,16.17 -11.28,28.4 0,12.23 3.76,21.69 11.28,28.4 7.53,6.7 18.58,10.05 33.17,10.05zm33.86 128.05c7.76,0 14.23,-2.12 19.41,-6.35 5.17,-4.23 7.76,-9.88 7.76,-16.93 0,-7.06 -2.06,-12.65 -6.18,-16.76 -4.11,-4.12 -9.58,-6.18 -16.4,-6.18l-77.26 0c-6.82,0 -12.23,2.06 -16.23,6.18 -4,4.11 -6,9.7 -6,16.76 0,7.05 2,12.7 6,16.93 4,4.23 9.41,6.35 16.23,6.35l72.67 0z"/>
     <path id="6" class="fil18" d="M19150.47 1746.83l31.04 0 0 34.57 -31.04 0 0 -34.57zm0 69.5l31.04 0 0 185.55 -31.04 0 0 -185.55z"/>
     <path id="7" class="fil18" d="M19228.79 1816.32l23.63 0 3.53 25.05 2.47 0c13.64,-19.53 34.45,-29.29 62.44,-29.29 18.58,0 32.87,5 42.86,15 10,9.99 15,26.04 15,48.15l0 126.64 -31.05 0 0 -124.52c0,-14.82 -3.29,-25.11 -9.87,-30.87 -6.59,-5.76 -16.12,-8.64 -28.58,-8.64 -8.94,0 -17.17,2.17 -24.69,6.52 -7.53,4.35 -13.53,10.65 -18,18.88 -4.46,8.23 -6.7,17.87 -6.7,28.93l0 109.7 -31.04 0 0 -185.55z"/>
     <path id="8" class="fil18" d="M19424.93 1816.32l23.63 0 3.53 25.05 2.47 0c13.64,-19.53 34.45,-29.29 62.44,-29.29 18.58,0 32.87,5 42.86,15 10,9.99 15,26.04 15,48.15l0 126.64 -31.05 0 0 -124.52c0,-14.82 -3.29,-25.11 -9.87,-30.87 -6.59,-5.76 -16.12,-8.64 -28.58,-8.64 -8.94,0 -17.17,2.17 -24.69,6.52 -7.53,4.35 -13.53,10.65 -18,18.88 -4.46,8.23 -6.7,17.87 -6.7,28.93l0 109.7 -31.04 0 0 -185.55z"/>
     <path id="9" class="fil18" d="M19699.73 2006.1c-29.87,0 -52.1,-7.88 -66.68,-23.63 -14.58,-15.76 -21.87,-40.22 -21.87,-73.38 0,-33.16 7.29,-57.62 21.87,-73.38 14.58,-15.76 36.81,-23.64 66.68,-23.64 26.81,0 46.86,7.12 60.15,21.35 13.28,14.23 19.93,37.1 19.93,68.61l0 15.53 -136.52 0c1.18,21.4 6.29,37.21 15.35,47.44 9.05,10.24 22.75,15.35 41.1,15.35 14.81,0 26.81,-3.41 35.98,-10.23 9.17,-6.82 13.76,-17.29 13.76,-31.4l30.34 0c0,21.64 -7.47,38.28 -22.4,49.92 -14.94,11.64 -34.17,17.46 -57.68,17.46zm47.62 -114.29c0,-35.98 -15.87,-53.97 -47.62,-53.97 -17.64,0 -30.87,4.23 -39.69,12.7 -8.82,8.46 -14.17,22.22 -16.05,41.27l103.36 0z"/>
     <path id="10" class="fil18" d="M19817.21 1816.32l23.63 0 3.53 27.87 2.12 0c3.52,-9.17 8.82,-16.82 15.87,-22.93 7.06,-6.12 16.35,-9.18 27.87,-9.18 4,0 7.59,0.42 10.76,1.24 3.18,0.82 5.12,1.35 5.82,1.59l0 29.98 -13.05 0c-13.17,0 -24.05,3.82 -32.63,11.47 -8.59,7.64 -12.88,19.58 -12.88,35.81l0 109.7 -31.04 0 0 -185.55z"/>
     <path id="11" class="fil18" d="M19998.18 2006.1c-17.17,0 -31.46,-2.52 -42.87,-7.58 -11.4,-5.06 -19.81,-11.7 -25.22,-19.93 -5.41,-8.24 -8.11,-17.17 -8.11,-26.81 0,-2.83 0.05,-4.77 0.17,-5.83 0.12,-1.05 0.18,-1.7 0.18,-1.94l30.69 0 0 3.53c0,11.06 4.35,19.35 13.05,24.87 8.71,5.53 19.99,8.29 33.87,8.29 12,0 21.93,-2.41 29.81,-7.23 7.88,-4.82 11.82,-11.58 11.82,-20.28 0,-6.82 -2.24,-12.41 -6.7,-16.76 -4.47,-4.35 -10,-7.76 -16.58,-10.23 -6.59,-2.47 -15.53,-5.12 -26.82,-7.94 -13.64,-3.53 -24.75,-7.05 -33.33,-10.58 -8.59,-3.53 -15.88,-8.76 -21.88,-15.7 -5.99,-6.94 -8.99,-15.93 -8.99,-26.99 0,-16.23 6.64,-29.1 19.93,-38.63 13.29,-9.52 31.22,-14.29 53.8,-14.29 14.11,0 26.34,2.3 36.69,6.88 10.35,4.59 18.17,10.7 23.46,18.35 5.29,7.64 7.94,16.17 7.94,25.57l-0.36 6.71 -30.34 0 0 -3.18c0,-8.23 -3.23,-15.05 -9.7,-20.46 -6.47,-5.41 -16.87,-8.11 -31.22,-8.11 -14.11,0 -23.99,2.53 -29.63,7.58 -5.65,5.06 -8.47,10.88 -8.47,17.46 0,5.41 2,9.88 6,13.41 4,3.53 8.94,6.35 14.81,8.47 5.88,2.11 14.12,4.47 24.7,7.05 14.58,3.77 26.46,7.47 35.63,11.12 9.17,3.64 16.99,9.17 23.46,16.58 6.47,7.4 9.7,17.22 9.7,29.45 0,19.05 -6.88,33.34 -20.64,42.87 -13.75,9.52 -32.04,14.28 -54.85,14.28z"/>
    </g>
   </g>
  </g>
 </g>
</svg>
